<?xml version="1.0" encoding="UTF-8" standalone="no"?>
<!-- Generator: Adobe Illustrator 21.1.0, SVG Export Plug-In . SVG Version: 6.00 Build 0)  -->

<svg
   xmlns:dc="http://purl.org/dc/elements/1.1/"
   xmlns:cc="http://creativecommons.org/ns#"
   xmlns:rdf="http://www.w3.org/1999/02/22-rdf-syntax-ns#"
   xmlns:svg="http://www.w3.org/2000/svg"
   xmlns="http://www.w3.org/2000/svg"
   xmlns:sodipodi="http://sodipodi.sourceforge.net/DTD/sodipodi-0.dtd"
   xmlns:inkscape="http://www.inkscape.org/namespaces/inkscape"
   version="1.1"
   x="0px"
   y="0px"
   width="800"
   height="500"
   viewBox="0 0 800 500"
   xml:space="preserve"
   id="svg2335"
   sodipodi:docname="dci.svg"
   inkscape:version="0.92.2 (5c3e80d, 2017-08-06)"
   inkscape:export-filename="/home/guillaume/Desktop/dci.svg.png"
   inkscape:export-xdpi="299.965"
   inkscape:export-ydpi="299.965"><metadata
     id="metadata2341"><rdf:RDF><cc:Work
         rdf:about=""><dc:format>image/svg+xml</dc:format><dc:type
           rdf:resource="http://purl.org/dc/dcmitype/StillImage" /><dc:title /></cc:Work></rdf:RDF></metadata><defs
     id="defs2339"><clipPath
       id="clipPath5209"
       clipPathUnits="userSpaceOnUse"><path
         inkscape:connector-curvature="0"
         id="path5207"
         d="M 0,612 H 792 V 0 H 0 Z" /></clipPath><clipPath
       id="clipPath5239"
       clipPathUnits="userSpaceOnUse"><path
         inkscape:connector-curvature="0"
         id="path5237"
         d="M 0,612 H 792 V 0 H 0 Z" /></clipPath><clipPath
       id="clipPath5265"
       clipPathUnits="userSpaceOnUse"><path
         inkscape:connector-curvature="0"
         id="path5263"
         d="M 0,612 H 792 V 0 H 0 Z" /></clipPath><clipPath
       id="clipPath5303"
       clipPathUnits="userSpaceOnUse"><path
         inkscape:connector-curvature="0"
         id="path5301"
         d="M 0,612 H 792 V 0 H 0 Z" /></clipPath><clipPath
       id="clipPath5325"
       clipPathUnits="userSpaceOnUse"><path
         inkscape:connector-curvature="0"
         id="path5323"
         d="M 0,612 H 792 V 0 H 0 Z" /></clipPath><clipPath
       id="clipPath5373"
       clipPathUnits="userSpaceOnUse"><path
         inkscape:connector-curvature="0"
         id="path5371"
         d="M 0,612 H 792 V 0 H 0 Z" /></clipPath><clipPath
       id="clipPath5431"
       clipPathUnits="userSpaceOnUse"><path
         inkscape:connector-curvature="0"
         id="path5429"
         d="M 0,612 H 792 V 0 H 0 Z" /></clipPath><clipPath
       id="clipPath5463"
       clipPathUnits="userSpaceOnUse"><path
         inkscape:connector-curvature="0"
         id="path5461"
         d="M 0,612 H 792 V 0 H 0 Z" /></clipPath><clipPath
       id="clipPath5483"
       clipPathUnits="userSpaceOnUse"><path
         inkscape:connector-curvature="0"
         id="path5481"
         d="M 0,612 H 792 V 0 H 0 Z" /></clipPath><clipPath
       id="clipPath5547"
       clipPathUnits="userSpaceOnUse"><path
         inkscape:connector-curvature="0"
         id="path5545"
         d="M 0,612 H 792 V 0 H 0 Z" /></clipPath><clipPath
       id="clipPath5585"
       clipPathUnits="userSpaceOnUse"><path
         inkscape:connector-curvature="0"
         id="path5583"
         d="M 0,612 H 792 V 0 H 0 Z" /></clipPath><clipPath
       id="clipPath5619"
       clipPathUnits="userSpaceOnUse"><path
         inkscape:connector-curvature="0"
         id="path5617"
         d="M 0,612 H 792 V 0 H 0 Z" /></clipPath></defs><sodipodi:namedview
     pagecolor="#ffffff"
     bordercolor="#666666"
     borderopacity="1"
     objecttolerance="10"
     gridtolerance="10"
     guidetolerance="10"
     inkscape:pageopacity="1"
     inkscape:pageshadow="2"
     inkscape:window-width="1920"
     inkscape:window-height="1016"
     id="namedview2337"
     showgrid="false"
     showborder="true"
     inkscape:showpageshadow="false"
     inkscape:zoom="1.0921785"
     inkscape:cx="214.88353"
     inkscape:cy="253.91631"
     inkscape:window-x="0"
     inkscape:window-y="27"
     inkscape:window-maximized="1"
     inkscape:current-layer="svg2335" /><g
     id="Layer_2"
     transform="translate(0,-16)" /><path
     style="fill:#e5e5e5;stroke-width:1.65527654"
     d="m 790,70.591889 v 179.999991 180 H 600 v -180 -179.99999 z"
     id="rect3403"
     inkscape:connector-curvature="0" /><rect
     style="vector-effect:none;fill:#ffffff;stroke:none;stroke-width:3.11939406;stroke-linecap:round;stroke-linejoin:round;stroke-miterlimit:4;stroke-dasharray:none;stroke-dashoffset:0"
     id="rect3522"
     width="150"
     height="150"
     x="-770"
     y="90"
     transform="scale(-1,1)" /><rect
     y="260"
     x="-770"
     height="80"
     width="150"
     id="rect6186"
     style="vector-effect:none;fill:#ffffff;stroke:none;stroke-width:2.27808332;stroke-linecap:round;stroke-linejoin:round;stroke-miterlimit:4;stroke-dasharray:none;stroke-dashoffset:0"
     transform="scale(-1,1)" /><path
     id="path3408"
     d="M 590,69.408117 V 249.40812 429.40811 H 230 V 249.40812 69.408117 Z"
     style="fill:#e5e5e5;stroke-width:2.27847886"
     inkscape:connector-curvature="0" /><rect
     y="90"
     x="-569.08435"
     height="320"
     width="130"
     id="rect6188"
     style="vector-effect:none;fill:#ffffff;stroke:none;stroke-width:4.24156046;stroke-linecap:round;stroke-linejoin:round;stroke-miterlimit:4;stroke-dasharray:none;stroke-dashoffset:0"
     transform="scale(-1,1)" /><rect
     y="90"
     x="-399.08438"
     height="150"
     width="150"
     id="rect6250"
     style="vector-effect:none;fill:#ffffff;stroke:none;stroke-width:3.11939406;stroke-linecap:round;stroke-linejoin:round;stroke-miterlimit:4;stroke-dasharray:none;stroke-dashoffset:0"
     transform="scale(-1,1)" /><rect
     style="vector-effect:none;fill:#ffffff;stroke:none;stroke-width:3.1193943;stroke-linecap:round;stroke-linejoin:round;stroke-miterlimit:4;stroke-dasharray:none;stroke-dashoffset:0"
     id="rect6264"
     width="150"
     height="150"
     x="-399.08438"
     y="260"
     transform="scale(-1,1)" /><g
     transform="matrix(0.83817613,0,0,-0.83817613,482.19191,274)"
     inkscape:label="ink_ext_XXXXXX"
     id="g6666"
     style="fill:#7f7f7f;fill-opacity:1"><g
       transform="scale(0.1)"
       id="g6668"
       style="fill:#7f7f7f;fill-opacity:1"><path
         inkscape:connector-curvature="0"
         id="path6670"
         style="fill:#7f7f7f;fill-opacity:1;fill-rule:nonzero;stroke:none"
         d="m 460.461,41.5234 c 0,-15.0859 -12.277,-27.3632 -27.363,-27.3632 -15.09,0 -27.368,12.2773 -27.368,27.3632 0,15.0938 12.278,27.3672 27.368,27.3672 15.086,0 27.363,-12.2734 27.363,-27.3672 z M 234.363,16.7539 260.371,61.8125 286.387,16.7539 Z M 116.648,14.1602 H 61.9219 V 68.8906 H 116.648 Z M 14.1602,275.719 H 80.5664 V 175.574 H 14.1602 Z M 80.5664,390.02 V 289.879 H 14.1602 V 390.02 Z M 60.2813,524.066 c 0,15.09 12.2773,27.364 27.3671,27.364 15.0856,0 27.3636,-12.274 27.3636,-27.364 0,-15.086 -12.278,-27.363 -27.3636,-27.363 -15.0898,0 -27.3671,12.277 -27.3671,27.363 z M 233.008,551.43 h 54.726 v -54.727 h -54.726 z m 200.09,-7.078 26.011,-45.055 H 407.09 Z M 508.223,289.879 H 440.176 V 390.02 h 68.047 z M 440.176,175.574 v 100.145 h 68.047 V 175.574 Z M 267.449,228.867 H 426.016 V 175.574 H 267.449 Z m -172.7224,0 H 253.289 V 175.574 H 94.7266 Z M 253.289,337.875 H 94.7266 V 390.02 H 253.289 Z m 172.727,0 H 267.449 v 52.145 h 158.567 z m 0,-14.16 V 289.879 H 94.7266 v 33.836 z M 94.7266,243.027 v 32.692 H 426.016 V 243.027 Z M 522.383,161.418 V 404.18 h -82.207 v 80.957 h 43.469 l -50.547,87.535 -50.539,-87.535 h 43.457 V 404.18 H 267.449 v 4.429 73.934 h 34.446 v 83.047 h -83.047 v -83.047 h 34.441 V 408.609 404.18 H 94.7266 v 79.082 c 19.5194,3.383 34.4454,20.336 34.4454,40.804 0,22.899 -18.625,41.524 -41.5236,41.524 -22.9023,0 -41.5273,-18.625 -41.5273,-41.524 0,-20.468 14.9219,-37.421 34.4453,-40.804 V 404.18 H 0 V 161.418 H 80.5664 V 83.0508 H 47.7656 V 0 H 130.813 V 83.0508 H 94.7266 V 161.418 H 253.289 v -6.102 -77.0426 h 0.234 L 209.836,2.59375 H 310.918 L 267.219,78.2734 h 0.23 v 77.0426 6.102 H 426.016 V 82.3359 C 406.492,78.9531 391.57,62 391.57,41.5234 391.57,18.6289 410.195,0 433.098,0 c 22.898,0 41.519,18.6289 41.519,41.5234 0,20.4766 -14.922,37.4297 -34.441,40.8125 v 79.0821 h 82.207" /></g></g><path
     inkscape:connector-curvature="0"
     id="path6192"
     d="M 220,69.686987 V 249.68698 429.68699 H 10 V 249.68698 69.686987 Z"
     style="fill:#e5e5e5;stroke-width:1.74021697" /><rect
     y="147.68443"
     x="-203.16876"
     height="150"
     width="150"
     id="rect6204"
     style="vector-effect:none;fill:#ffffff;stroke:none;stroke-width:3.11939406;stroke-linecap:round;stroke-linejoin:round;stroke-miterlimit:4;stroke-dasharray:none;stroke-dashoffset:0"
     transform="scale(-1,1)" /><rect
     y="155.18443"
     x="-195.66876"
     height="150"
     width="150"
     id="rect6202"
     style="vector-effect:none;fill:#e5e5e5;fill-opacity:1;stroke:none;stroke-width:3.11939406;stroke-linecap:round;stroke-linejoin:round;stroke-miterlimit:4;stroke-dasharray:none;stroke-dashoffset:0"
     transform="scale(-1,1)" /><rect
     y="162.68443"
     x="-188.16876"
     height="150"
     width="150"
     id="rect6194"
     style="vector-effect:none;fill:#ffffff;stroke:none;stroke-width:3.11939406;stroke-linecap:round;stroke-linejoin:round;stroke-miterlimit:4;stroke-dasharray:none;stroke-dashoffset:0"
     transform="scale(-1,1)" /><rect
     style="vector-effect:none;fill:#e5e5e5;fill-opacity:1;stroke:none;stroke-width:3.11939406;stroke-linecap:round;stroke-linejoin:round;stroke-miterlimit:4;stroke-dasharray:none;stroke-dashoffset:0"
     id="rect6196"
     width="150"
     height="150"
     x="-180.66876"
     y="170.18445"
     transform="scale(-1,1)" /><rect
     style="vector-effect:none;fill:#ffffff;stroke:none;stroke-width:3.11939406;stroke-linecap:round;stroke-linejoin:round;stroke-miterlimit:4;stroke-dasharray:none;stroke-dashoffset:0"
     id="rect6200"
     width="150"
     height="150"
     x="-173.16876"
     y="177.68443"
     transform="scale(-1,1)" /><g
     transform="matrix(0.75700466,0,0,-0.75700466,74.16876,276.51013)"
     inkscape:label="ink_ext_XXXXXX"
     id="g6820"
     style="fill:#7f7f7f;fill-opacity:1"><g
       transform="scale(0.1)"
       id="g6822"
       style="fill:#7f7f7f;fill-opacity:1"><path
         inkscape:connector-curvature="0"
         id="path6824"
         style="fill:#7f7f7f;fill-opacity:1;fill-rule:nonzero;stroke:none"
         d="M 96.6758,610.684 H 77.8867 c -5.1875,0 -9.3945,4.207 -9.3945,9.394 0,5.188 4.207,9.395 9.3945,9.395 h 18.7891 c 5.1872,0 9.3942,-4.207 9.3942,-9.395 0,-5.187 -4.207,-9.394 -9.3942,-9.394 z m 56.3712,0 h -18.789 c -5.192,0 -9.395,4.207 -9.395,9.394 0,5.188 4.203,9.395 9.395,9.395 h 18.789 c 5.187,0 9.394,-4.207 9.394,-9.395 0,-5.187 -4.207,-9.394 -9.394,-9.394 z m 56.371,0 h -18.789 c -5.191,0 -9.399,4.207 -9.399,9.394 0,5.188 4.208,9.395 9.399,9.395 h 18.789 c 5.187,0 9.395,-4.207 9.395,-9.395 0,-5.187 -4.208,-9.394 -9.395,-9.394 z m 56.371,0 h -18.793 c -5.187,0 -9.394,4.207 -9.394,9.394 0,5.188 4.207,9.395 9.394,9.395 h 18.793 c 5.188,0 9.395,-4.207 9.395,-9.395 0,-5.187 -4.207,-9.394 -9.395,-9.394 z m 56.371,0 h -18.793 c -5.187,0 -9.394,4.207 -9.394,9.394 0,5.188 4.207,9.395 9.394,9.395 h 18.793 c 5.192,0 9.395,-4.207 9.395,-9.395 0,-5.187 -4.203,-9.394 -9.395,-9.394 z m 56.371,0 h -18.793 c -5.191,0 -9.394,4.207 -9.394,9.394 0,5.188 4.203,9.395 9.394,9.395 h 18.793 c 5.192,0 9.395,-4.207 9.395,-9.395 0,-5.187 -4.203,-9.394 -9.395,-9.394 z m 56.371,0 h -18.793 c -5.191,0 -9.394,4.207 -9.394,9.394 0,5.188 4.203,9.395 9.394,9.395 h 18.793 c 5.192,0 9.395,-4.207 9.395,-9.395 0,-5.187 -4.203,-9.394 -9.395,-9.394 z m 56.368,0 h -18.79 c -5.191,0 -9.394,4.207 -9.394,9.394 0,5.188 4.203,9.395 9.394,9.395 h 18.79 c 5.195,0 9.398,-4.207 9.398,-9.395 0,-5.187 -4.203,-9.394 -9.398,-9.394 z m 56.371,0 h -18.789 c -5.192,0 -9.395,4.207 -9.395,9.394 0,5.188 4.203,9.395 9.395,9.395 h 18.789 c 5.195,0 9.394,-4.207 9.394,-9.395 0,-5.187 -4.199,-9.394 -9.394,-9.394 z m 56.371,0 h -18.789 c -5.192,0 -9.395,4.207 -9.395,9.394 0,5.188 4.203,9.395 9.395,9.395 h 18.789 c 5.195,0 9.394,-4.207 9.394,-9.395 0,-5.187 -4.199,-9.394 -9.394,-9.394 z M 21.7656,608.941 c -3.6093,0 -7.0508,2.09 -8.6015,5.606 -2.0899,4.746 0.0586,10.293 4.8047,12.391 3.8164,1.683 7.8867,2.535 12.0976,2.535 h 10.2383 c 5.1875,0 9.3945,-4.207 9.3945,-9.395 0,-5.187 -4.207,-9.394 -9.3945,-9.394 H 30.0664 c -1.582,0 -3.0976,-0.317 -4.5078,-0.942 -1.2344,-0.543 -2.5234,-0.797 -3.793,-0.801 z M 624.684,573.563 c -5.192,0 -9.395,4.207 -9.395,9.394 v 16.449 c 0,0.446 -0.027,0.887 -0.074,1.317 -0.559,5.16 3.168,9.797 8.332,10.355 5.035,0.555 9.789,-3.172 10.348,-8.328 0.121,-1.09 0.183,-2.211 0.183,-3.344 v -16.449 c 0,-5.187 -4.199,-9.394 -9.394,-9.394 z M 9.39453,557.574 C 4.20703,557.574 0,561.781 0,566.969 v 18.789 c 0,5.191 4.20703,9.394 9.39453,9.394 5.18747,0 9.39457,-4.203 9.39457,-9.394 v -18.789 c 0,-5.188 -4.2071,-9.395 -9.39457,-9.395 z M 624.684,517.191 c -5.192,0 -9.395,4.207 -9.395,9.395 v 18.789 c 0,5.188 4.203,9.395 9.395,9.395 5.195,0 9.394,-4.207 9.394,-9.395 v -18.789 c 0,-5.188 -4.199,-9.395 -9.394,-9.395 z M 9.39453,501.203 C 4.20703,501.203 0,505.41 0,510.598 v 18.789 c 0,5.191 4.20703,9.398 9.39453,9.398 5.18747,0 9.39457,-4.207 9.39457,-9.398 v -18.789 c 0,-5.188 -4.2071,-9.395 -9.39457,-9.395 z M 624.684,460.82 c -5.192,0 -9.395,4.207 -9.395,9.395 v 18.789 c 0,5.187 4.203,9.394 9.395,9.394 5.195,0 9.394,-4.207 9.394,-9.394 v -18.789 c 0,-5.188 -4.199,-9.395 -9.394,-9.395 z M 9.39453,444.832 C 4.20703,444.832 0,449.039 0,454.227 v 18.793 c 0,5.187 4.20703,9.394 9.39453,9.394 5.18747,0 9.39457,-4.207 9.39457,-9.394 v -18.793 c 0,-5.188 -4.2071,-9.395 -9.39457,-9.395 z M 624.684,404.449 c -5.192,0 -9.395,4.207 -9.395,9.395 v 18.789 c 0,5.191 4.203,9.394 9.395,9.394 5.195,0 9.394,-4.203 9.394,-9.394 v -18.789 c 0,-5.188 -4.199,-9.395 -9.394,-9.395 z M 9.39453,388.461 C 4.20703,388.461 0,392.668 0,397.855 v 18.793 c 0,5.188 4.20703,9.395 9.39453,9.395 5.18747,0 9.39457,-4.207 9.39457,-9.395 v -18.793 c 0,-5.187 -4.2071,-9.394 -9.39457,-9.394 z M 624.684,348.078 c -5.192,0 -9.395,4.207 -9.395,9.395 v 18.789 c 0,5.191 4.203,9.394 9.395,9.394 5.195,0 9.394,-4.203 9.394,-9.394 v -18.789 c 0,-5.188 -4.199,-9.395 -9.394,-9.395 z M 9.39453,332.09 C 4.20703,332.09 0,336.297 0,341.484 v 18.793 c 0,5.188 4.20703,9.395 9.39453,9.395 5.18747,0 9.39457,-4.207 9.39457,-9.395 v -18.793 c 0,-5.187 -4.2071,-9.394 -9.39457,-9.394 z M 624.684,291.707 c -5.192,0 -9.395,4.203 -9.395,9.395 v 18.793 c 0,5.187 4.203,9.394 9.395,9.394 5.195,0 9.394,-4.207 9.394,-9.394 v -18.793 c 0,-5.192 -4.199,-9.395 -9.394,-9.395 z M 9.39453,275.715 C 4.20703,275.715 0,279.918 0,285.109 v 18.793 c 0,5.188 4.20703,9.395 9.39453,9.395 5.18747,0 9.39457,-4.207 9.39457,-9.395 v -18.793 c 0,-5.191 -4.2071,-9.394 -9.39457,-9.394 z M 624.684,235.336 c -5.192,0 -9.395,4.203 -9.395,9.394 v 18.793 c 0,5.192 4.203,9.395 9.395,9.395 5.195,0 9.394,-4.203 9.394,-9.395 V 244.73 c 0,-5.191 -4.199,-9.394 -9.394,-9.394 z M 9.39453,219.344 C 4.20703,219.344 0,223.547 0,228.738 v 18.793 c 0,5.192 4.20703,9.395 9.39453,9.395 5.18747,0 9.39457,-4.203 9.39457,-9.395 v -18.793 c 0,-5.191 -4.2071,-9.394 -9.39457,-9.394 z M 624.684,178.965 c -5.192,0 -9.395,4.203 -9.395,9.394 v 18.793 c 0,5.192 4.203,9.395 9.395,9.395 5.195,0 9.394,-4.203 9.394,-9.395 v -18.793 c 0,-5.191 -4.199,-9.394 -9.394,-9.394 z M 9.39453,162.973 C 4.20703,162.973 0,167.176 0,172.367 v 18.793 c 0,5.192 4.20703,9.395 9.39453,9.395 5.18747,0 9.39457,-4.203 9.39457,-9.395 v -18.793 c 0,-5.191 -4.2071,-9.394 -9.39457,-9.394 z M 624.684,122.594 c -5.192,0 -9.395,4.203 -9.395,9.394 v 18.793 c 0,5.192 4.203,9.395 9.395,9.395 5.195,0 9.394,-4.203 9.394,-9.395 v -18.793 c 0,-5.191 -4.199,-9.394 -9.394,-9.394 z M 9.39453,106.602 C 4.20703,106.602 0,110.805 0,116 v 18.789 c 0,5.191 4.20703,9.395 9.39453,9.395 5.18747,0 9.39457,-4.204 9.39457,-9.395 V 116 c 0,-5.195 -4.2071,-9.398 -9.39457,-9.398 z M 624.684,66.2227 c -5.192,0 -9.395,4.2031 -9.395,9.3945 v 18.793 c 0,5.1914 4.203,9.3948 9.395,9.3948 5.195,0 9.394,-4.2034 9.394,-9.3948 v -18.793 c 0,-5.1914 -4.199,-9.3945 -9.394,-9.3945 z M 9.39453,50.2305 C 4.20703,50.2305 0,54.4336 0,59.6289 V 78.418 c 0,5.1914 4.20703,9.3945 9.39453,9.3945 5.18747,0 9.39457,-4.2031 9.39457,-9.3945 V 59.6289 c 0,-5.1953 -4.2071,-9.3984 -9.39457,-9.3984 z M 621.914,10.3477 c -1.598,0 -3.211,0.4062 -4.687,1.2578 -4.497,2.5976 -6.039,8.3398 -3.442,12.8359 1,1.7266 1.504,3.625 1.504,5.625 v 7.9727 c 0,5.1914 4.203,9.3945 9.395,9.3945 5.195,0 9.394,-4.2031 9.394,-9.3945 v -7.9727 c 0,-5.2656 -1.383,-10.4609 -4.015,-15.0195 -1.747,-3.0117 -4.903,-4.6992 -8.149,-4.6992 z M 24.4688,0.769531 c -0.8438,0 -1.6993,0.109375 -2.5508,0.347659 C 13.0703,3.61328 5.70703,10.1836 2.22656,18.6875 0.261719,23.4961 2.5625,28.9844 7.36719,30.9453 12.1875,32.9102 17.6563,30.5977 19.6211,25.8086 c 1.3008,-3.2031 4.0703,-5.6602 7.3906,-6.5977 4.9961,-1.4101 7.9024,-6.5976 6.4961,-11.59762 -1.168,-4.13672 -4.9375,-6.843749 -9.039,-6.843749 z M 80.7617,0 h -18.789 c -5.1875,0 -9.3946,4.20313 -9.3946,9.39453 0,5.19527 4.2071,9.39457 9.3946,9.39457 h 18.789 c 5.1875,0 9.3946,-4.1993 9.3946,-9.39457 C 90.1563,4.20313 85.9492,0 80.7617,0 Z m 56.3713,0 h -18.789 c -5.192,0 -9.395,4.20313 -9.395,9.39453 0,5.19527 4.203,9.39457 9.395,9.39457 h 18.789 c 5.187,0 9.394,-4.1993 9.394,-9.39457 C 146.527,4.20313 142.32,0 137.133,0 Z m 56.371,0 h -18.789 c -5.192,0 -9.399,4.20313 -9.399,9.39453 0,5.19527 4.207,9.39457 9.399,9.39457 h 18.789 c 5.187,0 9.394,-4.1993 9.394,-9.39457 C 202.898,4.20313 198.691,0 193.504,0 Z m 56.371,0 h -18.789 c -5.191,0 -9.398,4.20313 -9.398,9.39453 0,5.19527 4.207,9.39457 9.398,9.39457 h 18.789 c 5.188,0 9.395,-4.1993 9.395,-9.39457 C 259.27,4.20313 255.063,0 249.875,0 Z m 56.371,0 h -18.793 c -5.187,0 -9.394,4.20313 -9.394,9.39453 0,5.19527 4.207,9.39457 9.394,9.39457 h 18.793 c 5.188,0 9.395,-4.1993 9.395,-9.39457 C 315.641,4.20313 311.434,0 306.246,0 Z m 56.375,0 h -18.793 c -5.191,0 -9.394,4.20313 -9.394,9.39453 0,5.19527 4.203,9.39457 9.394,9.39457 h 18.793 c 5.192,0 9.395,-4.1993 9.395,-9.39457 C 372.016,4.20313 367.813,0 362.621,0 Z m 56.371,0 h -18.793 c -5.191,0 -9.394,4.20313 -9.394,9.39453 0,5.19527 4.203,9.39457 9.394,9.39457 h 18.793 c 5.192,0 9.395,-4.1993 9.395,-9.39457 C 428.387,4.20313 424.184,0 418.992,0 Z m 56.371,0 H 456.57 c -5.191,0 -9.394,4.20313 -9.394,9.39453 0,5.19527 4.203,9.39457 9.394,9.39457 h 18.793 c 5.192,0 9.395,-4.1993 9.395,-9.39457 C 484.758,4.20313 480.555,0 475.363,0 Z m 56.371,0 h -18.793 c -5.191,0 -9.394,4.20313 -9.394,9.39453 0,5.19527 4.203,9.39457 9.394,9.39457 h 18.793 c 5.192,0 9.395,-4.1993 9.395,-9.39457 C 541.129,4.20313 536.926,0 531.734,0 Z m 56.371,0 h -18.792 c -5.192,0 -9.395,4.20313 -9.395,9.39453 0,5.19527 4.203,9.39457 9.395,9.39457 h 18.792 c 5.192,0 9.395,-4.1993 9.395,-9.39457 C 597.5,4.20313 593.297,0 588.105,0" /><path
         inkscape:connector-curvature="0"
         id="path6826"
         style="fill:#7f7f7f;fill-opacity:1;fill-rule:nonzero;stroke:none"
         d="m 74.2148,563.707 c -4.4609,0 -8.0898,-3.629 -8.0898,-8.094 V 73.8594 c 0,-4.461 3.6289,-8.0938 8.0898,-8.0938 H 559.863 c 4.457,0 8.09,3.6328 8.09,8.0938 V 555.613 c 0,4.465 -3.633,8.094 -8.09,8.094 z M 559.863,46.9766 H 74.2148 c -14.8203,0 -26.8828,12.0547 -26.8828,26.8828 V 555.613 c 0,14.825 12.0625,26.883 26.8828,26.883 H 559.863 c 14.828,0 26.883,-12.058 26.883,-26.883 V 73.8594 c 0,-14.8281 -12.055,-26.8828 -26.883,-26.8828" /><path
         inkscape:connector-curvature="0"
         id="path6828"
         style="fill:#7f7f7f;fill-opacity:1;fill-rule:nonzero;stroke:none"
         d="m 302.828,551.113 -0.019,18.793 28.187,0.028 0.016,-18.793 z m 0.039,-37.586 -0.019,18.793 28.183,0.035 0.028,-18.789 z m 0.039,-37.574 -0.019,18.789 28.179,0.028 0.02,-18.79 z m 0.035,-37.582 -0.015,18.793 28.187,0.027 0.008,-18.789 z m 0.043,-37.582 -0.023,18.789 28.18,0.035 0.027,-18.789 z m 0.036,-37.578 -0.016,18.793 28.184,0.027 0.019,-18.793 z m 0.039,-37.578 -0.02,18.789 28.184,0.027 0.019,-18.789 z m 0.027,-25.227 -0.008,6.442 28.184,0.015 0.008,-6.441 -28.184,-0.016" /><path
         inkscape:connector-curvature="0"
         id="path6830"
         style="fill:#7f7f7f;fill-opacity:1;fill-rule:nonzero;stroke:none"
         d="m 317.039,215.438 c -7.246,0 -13.117,5.871 -13.117,13.117 0,7.246 5.871,13.117 13.117,13.117 7.246,0 13.117,-5.871 13.117,-13.117 0,-7.246 -5.871,-13.117 -13.117,-13.117 z m -26.238,92.949 V 203.438 h 52.476 v 104.949 h -52.476" /></g></g><g
     style="fill:#7f7f7f;fill-opacity:1"
     id="g6934"
     inkscape:label="ink_ext_XXXXXX"
     transform="matrix(0.80632562,0,0,-0.80632562,671,174.6033)"><g
       style="fill:#7f7f7f;fill-opacity:1"
       id="g6932"
       transform="scale(0.1)"><path
         d="M 575.293,20 H 19.9883 V 165.59 H 575.293 Z M 117.852,218.219 h 373.171 l 61.602,-30.156 H 46.9609 Z m 476.902,-37.551 c 1.203,4.531 -0.711,9.387 -5.078,11.523 l -91.953,45 c -1.368,0.664 -2.871,1.008 -4.375,1.008 h -377.52 c -1.348,0 -2.676,-0.254 -3.914,-0.781 L 6.08594,192.406 C 1.44531,190.434 -0.753906,185.375 0.515625,180.648 0.28125,179.801 0,178.98 0,178.07 V 175.59 10 C 0,4.49219 4.46094,0 10,0 h 575.281 c 5.539,0 10.012,4.49219 10.012,10 v 165.59 2.48 c 0,0.918 -0.305,1.758 -0.539,2.598"
         style="fill:#7f7f7f;fill-opacity:1;fill-rule:nonzero;stroke:none"
         id="path6922"
         inkscape:connector-curvature="0" /><path
         d="m 70.5547,79.5703 c 7.6094,0 13.7617,6.1524 13.7617,13.75 0,7.5977 -6.1523,13.7497 -13.7617,13.7497 -7.5859,0 -13.75,-6.152 -13.75,-13.7497 0,-7.5976 6.1641,-13.75 13.75,-13.75"
         style="fill:#7f7f7f;fill-opacity:1;fill-rule:nonzero;stroke:none"
         id="path6924"
         inkscape:connector-curvature="0" /><path
         d="m 119.344,79.5703 c 7.59,0 13.75,6.1524 13.75,13.75 0,7.5977 -6.16,13.7497 -13.75,13.7497 -7.598,0 -13.75,-6.152 -13.75,-13.7497 0,-7.5976 6.152,-13.75 13.75,-13.75"
         style="fill:#7f7f7f;fill-opacity:1;fill-rule:nonzero;stroke:none"
         id="path6926"
         inkscape:connector-curvature="0" /><path
         d="m 517.645,59.1016 h 20 v 70.0004 h -20 z m 30,-5 c 0,-2.7618 -2.247,-5 -5.008,-5 h -29.981 c -2.765,0 -5.011,2.2382 -5.011,5 v 80.0004 c 0,2.765 2.246,5 5.011,5 h 29.981 c 2.761,0 5.008,-2.235 5.008,-5 V 54.1016"
         style="fill:#7f7f7f;fill-opacity:1;fill-rule:nonzero;stroke:none"
         id="path6928"
         inkscape:connector-curvature="0" /><path
         d="m 457.645,59.1016 h 20 v 70.0004 h -20 z m 30,-5 c 0,-2.7618 -2.235,-5 -5,-5 h -30 c -2.762,0 -5,2.2382 -5,5 v 80.0004 c 0,2.765 2.238,5 5,5 h 30 c 2.765,0 5,-2.235 5,-5 V 54.1016"
         style="fill:#7f7f7f;fill-opacity:1;fill-rule:nonzero;stroke:none"
         id="path6930"
         inkscape:connector-curvature="0" /></g></g><g
     style="fill:#7f7f7f;fill-opacity:1"
     id="g6948"
     inkscape:label="ink_ext_XXXXXX"
     transform="matrix(0.80632562,0,0,-0.80632562,300.08438,344.6033)"><g
       style="fill:#7f7f7f;fill-opacity:1"
       id="g6946"
       transform="scale(0.1)"><path
         d="M 575.293,20 H 19.9883 V 165.59 H 575.293 Z M 117.852,218.219 h 373.171 l 61.602,-30.156 H 46.9609 Z m 476.902,-37.551 c 1.203,4.531 -0.711,9.387 -5.078,11.523 l -91.953,45 c -1.368,0.664 -2.871,1.008 -4.375,1.008 h -377.52 c -1.348,0 -2.676,-0.254 -3.914,-0.781 L 6.08594,192.406 C 1.44531,190.434 -0.753906,185.375 0.515625,180.648 0.28125,179.801 0,178.98 0,178.07 V 175.59 10 C 0,4.49219 4.46094,0 10,0 h 575.281 c 5.539,0 10.012,4.49219 10.012,10 v 165.59 2.48 c 0,0.918 -0.305,1.758 -0.539,2.598"
         style="fill:#7f7f7f;fill-opacity:1;fill-rule:nonzero;stroke:none"
         id="path6936"
         inkscape:connector-curvature="0" /><path
         d="m 70.5547,79.5703 c 7.6094,0 13.7617,6.1524 13.7617,13.75 0,7.5977 -6.1523,13.7497 -13.7617,13.7497 -7.5859,0 -13.75,-6.152 -13.75,-13.7497 0,-7.5976 6.1641,-13.75 13.75,-13.75"
         style="fill:#7f7f7f;fill-opacity:1;fill-rule:nonzero;stroke:none"
         id="path6938"
         inkscape:connector-curvature="0" /><path
         d="m 119.344,79.5703 c 7.59,0 13.75,6.1524 13.75,13.75 0,7.5977 -6.16,13.7497 -13.75,13.7497 -7.598,0 -13.75,-6.152 -13.75,-13.7497 0,-7.5976 6.152,-13.75 13.75,-13.75"
         style="fill:#7f7f7f;fill-opacity:1;fill-rule:nonzero;stroke:none"
         id="path6940"
         inkscape:connector-curvature="0" /><path
         d="m 517.645,59.1016 h 20 v 70.0004 h -20 z m 30,-5 c 0,-2.7618 -2.247,-5 -5.008,-5 h -29.981 c -2.765,0 -5.011,2.2382 -5.011,5 v 80.0004 c 0,2.765 2.246,5 5.011,5 h 29.981 c 2.761,0 5.008,-2.235 5.008,-5 V 54.1016"
         style="fill:#7f7f7f;fill-opacity:1;fill-rule:nonzero;stroke:none"
         id="path6942"
         inkscape:connector-curvature="0" /><path
         d="m 457.645,59.1016 h 20 v 70.0004 h -20 z m 30,-5 c 0,-2.7618 -2.235,-5 -5,-5 h -30 c -2.762,0 -5,2.2382 -5,5 v 80.0004 c 0,2.765 2.238,5 5,5 h 30 c 2.765,0 5,-2.235 5,-5 V 54.1016"
         style="fill:#7f7f7f;fill-opacity:1;fill-rule:nonzero;stroke:none"
         id="path6944"
         inkscape:connector-curvature="0" /></g></g><g
     transform="matrix(0.60480442,0,0,-0.60480442,671,304.91621)"
     inkscape:label="ink_ext_XXXXXX"
     id="g6993"
     style="fill:#7f7f7f;fill-opacity:1"><g
       transform="scale(0.1)"
       id="g6995"
       style="fill:#7f7f7f;fill-opacity:1"><path
         inkscape:connector-curvature="0"
         id="path6997"
         style="fill:#7f7f7f;fill-opacity:1;fill-rule:nonzero;stroke:none"
         d="m 518.711,365.195 c 1.555,-2.285 0.945,-5.41 -1.348,-6.953 L 403.352,281.211 c -0.864,-0.566 -1.836,-0.859 -2.805,-0.859 -1.602,0 -3.184,0.781 -4.141,2.207 -1.562,2.285 -0.945,5.39 1.336,6.953 l 114.028,77.011 c 2.273,1.543 5.398,0.957 6.941,-1.328 z m 72.707,86.211 c 1.543,-2.285 0.945,-5.39 -1.34,-6.933 l -143.957,-96.68 c -0.855,-0.566 -1.836,-0.859 -2.812,-0.859 -1.59,0 -3.164,0.781 -4.129,2.207 -1.551,2.285 -0.957,5.39 1.328,6.933 l 143.957,96.68 c 2.293,1.543 5.398,0.937 6.953,-1.348 z M 79.9609,73.1445 H 708.555 c 2.761,0 5,-2.2265 5,-5 0,-2.7539 -2.239,-5 -5,-5 H 79.9609 c -2.7734,0 -5,2.2461 -5,5 0,2.7735 2.2266,5 5,5 z m 24.3241,28.7505 c 0,2.773 2.238,5 5,5 h 579.953 c 2.742,0 5,-2.227 5,-5 0,-2.7544 -2.258,-5.0005 -5,-5.0005 H 109.285 c -2.762,0 -5,2.2461 -5,5.0005 z m 17.871,33.75 c 0,2.773 2.239,5 5,5 h 546.778 c 2.765,0 5,-2.227 5,-5 0,-2.754 -2.235,-5 -5,-5 H 127.156 c -2.761,0 -5,2.246 -5,5 z m 534.278,90.937 c 0,-6.445 -4.461,-11.699 -9.957,-11.699 H 153.691 c -5.488,0 -9.968,5.254 -9.968,11.699 v 285.703 c 0,6.445 4.48,11.699 9.968,11.699 h 492.786 c 5.496,0 9.957,-5.254 9.957,-11.699 z m -9.957,312.402 H 415.613 c 0.09,0.684 0.196,1.348 0.196,2.051 0,8.692 -7.032,15.742 -15.719,15.742 -8.703,0 -15.735,-7.05 -15.735,-15.742 0,-0.703 0.11,-1.367 0.196,-2.051 h -230.86 c -13.757,0 -24.968,-11.992 -24.968,-26.699 V 226.582 c 0,-14.727 11.211,-26.699 24.968,-26.699 h 492.786 c 13.765,0 24.957,11.972 24.957,26.699 v 285.703 c 0,14.707 -11.192,26.699 -24.957,26.699 z M 763.164,20 H 30.4766 c -4.375,0 -9.7539,0 -10.4258,16.8359 l 83.8042,96.7971 c 1.575,1.816 2.446,4.14 2.446,6.543 0,11.308 9.176,20.488 20.469,20.488 h 546.484 c 11.297,0 20.469,-9.18 20.469,-20.488 0,-2.266 0.789,-4.473 2.207,-6.25 L 773.586,37.0508 C 772.961,20 767.559,20 763.164,20 Z M 106.301,201.133 v 340.488 c 0,11.289 9.176,20.488 20.469,20.488 h 546.484 c 11.297,0 20.469,-9.199 20.469,-20.488 V 201.133 c 0,-11.289 -9.172,-20.469 -20.469,-20.469 H 126.77 c -11.293,0 -20.469,9.18 -20.469,20.469 z M 791.445,46.7383 713.574,143.906 c -0.984,10.703 -6.211,20.137 -13.906,26.817 8.535,7.422 14.055,18.242 14.055,30.41 v 340.488 c 0,22.324 -18.149,40.488 -40.469,40.488 H 126.77 c -22.317,0 -40.4692,-18.164 -40.4692,-40.488 V 201.133 c 0,-12.168 5.5078,-22.988 14.0512,-30.41 -7.6372,-6.621 -12.8325,-15.977 -13.8598,-26.602 L 2.43359,47.0313 C 0.859375,45.2148 0,42.8906 0,40.4883 0,13.6328 10.2539,0 30.4766,0 H 763.164 c 20.215,0 30.481,13.6328 30.481,40.4883 0,2.2656 -0.774,4.4726 -2.2,6.25" /></g></g><g
     transform="translate(-2.052,163.651)"
     id="g7286"><g
       id="g7280"><circle
         style="fill:#0088ce"
         cx="156"
         cy="33.5"
         r="9.5"
         id="circle7278" /></g><g
       id="g7284"><path
         style="fill:#ffffff"
         d="m 155.6,36.8 v -5.1 h -1.2 v -1 c 0.4,0 0.7,-0.1 1,-0.2 0.3,-0.1 0.4,-0.4 0.5,-0.7 h 1.2 v 7 z"
         id="path7282"
         inkscape:connector-curvature="0" /></g></g><g
     transform="translate(219.25,42.232997)"
     id="g7296"><g
       id="g7290"><circle
         style="fill:#0088ce"
         cx="50"
         cy="237.3"
         r="9.5"
         id="circle7288" /></g><g
       id="g7294"><path
         style="fill:#ffffff"
         d="m 47.2,240.6 c 0,-0.6 0.1,-1.1 0.3,-1.6 0.2,-0.5 0.4,-0.8 0.7,-1.1 0.3,-0.3 0.6,-0.6 1,-0.8 0.4,-0.2 0.8,-0.4 1.2,-0.6 0.3,-0.1 0.5,-0.3 0.6,-0.4 0.1,-0.1 0.2,-0.3 0.2,-0.4 0,-0.2 -0.1,-0.3 -0.3,-0.5 -0.2,-0.1 -0.5,-0.2 -0.9,-0.2 -0.4,0 -0.8,0.1 -1.1,0.2 -0.3,0.2 -0.6,0.4 -0.9,0.6 l -0.9,-1.1 c 0.4,-0.4 0.8,-0.7 1.3,-0.9 0.5,-0.2 1,-0.3 1.6,-0.3 0.8,0 1.5,0.2 1.9,0.5 0.4,0.3 0.7,0.8 0.7,1.5 0,0.3 0,0.5 -0.1,0.7 -0.1,0.2 -0.2,0.4 -0.3,0.6 -0.2,0.2 -0.3,0.3 -0.6,0.5 -0.2,0.1 -0.5,0.3 -0.8,0.4 -0.3,0.1 -0.6,0.3 -0.8,0.4 -0.2,0.1 -0.4,0.3 -0.5,0.4 -0.1,0.1 -0.3,0.3 -0.3,0.4 0,0.1 -0.1,0.3 -0.2,0.4 h 3.7 v 1.4 h -5.5 z"
         id="path7292"
         inkscape:connector-curvature="0" /></g></g><g
     transform="translate(89.412,-128.04)"
     id="g7306"><g
       id="g7300"><circle
         style="fill:#0088ce"
         cx="179.5"
         cy="237.3"
         r="9.5"
         id="circle7298" /></g><g
       id="g7304"><path
         style="fill:#ffffff"
         d="m 182,239.4 c -0.1,0.3 -0.3,0.5 -0.6,0.7 -0.3,0.2 -0.6,0.3 -0.9,0.4 -0.4,0.1 -0.8,0.1 -1.2,0.1 -0.5,0 -1,-0.1 -1.5,-0.3 -0.5,-0.2 -0.9,-0.6 -1.3,-1 l 1.1,-0.9 c 0.3,0.3 0.6,0.5 0.9,0.6 0.3,0.1 0.6,0.2 1,0.2 0.5,0 0.8,-0.1 1,-0.2 0.2,-0.2 0.3,-0.4 0.3,-0.7 0,-0.3 -0.1,-0.5 -0.3,-0.6 -0.2,-0.1 -0.4,-0.2 -0.8,-0.2 h -0.8 v -1.4 h 0.8 c 0.3,0 0.5,-0.1 0.6,-0.2 0.1,-0.1 0.2,-0.3 0.2,-0.5 0,-0.1 0,-0.2 -0.1,-0.3 0,-0.1 -0.1,-0.2 -0.2,-0.2 -0.1,-0.1 -0.2,-0.1 -0.4,-0.2 -0.1,0 -0.3,-0.1 -0.6,-0.1 -0.5,0 -1,0.2 -1.4,0.6 l -1,-0.9 c 0.3,-0.3 0.7,-0.6 1.1,-0.8 0.4,-0.2 0.8,-0.3 1.3,-0.3 0.4,0 0.7,0 1,0.1 0.3,0.1 0.6,0.2 0.8,0.4 0.2,0.2 0.4,0.4 0.5,0.6 0.1,0.2 0.2,0.5 0.2,0.9 0,0.4 -0.1,0.7 -0.2,0.9 -0.1,0.2 -0.4,0.4 -0.6,0.5 0.1,0 0.2,0.1 0.4,0.2 0.1,0.1 0.2,0.2 0.4,0.3 0.1,0.1 0.2,0.3 0.3,0.4 0.1,0.2 0.1,0.4 0.1,0.6 0.1,0.7 0,1 -0.1,1.3 z"
         id="path7302"
         inkscape:connector-curvature="0" /></g></g><g
     transform="translate(173.016,-128.364)"
     id="g7316"><g
       id="g7310"><circle
         style="fill:#0088ce"
         cx="285.60001"
         cy="237.3"
         r="9.5"
         id="circle7308" /></g><g
       id="g7314"><path
         style="fill:#ffffff"
         d="m 287.8,239.2 v 1.4 h -1.4 v -1.4 h -3.8 v -1.3 l 3.7,-4.3 h 1.5 v 4.3 h 0.9 v 1.3 z m -1.6,-3.6 c -0.1,0.2 -0.2,0.3 -0.3,0.4 l -1,1.2 c -0.1,0.1 -0.1,0.1 -0.2,0.2 -0.1,0.1 -0.1,0.1 -0.2,0.2 -0.1,0.1 -0.1,0.1 -0.2,0.2 -0.1,0.1 -0.1,0.1 -0.1,0.1 0.1,0 0.1,0 0.3,0 0.2,0 0.2,0 0.4,0 0.1,0 0.3,0 0.4,0 0.1,0 0.2,0 0.4,0 h 0.9 v -1.1 c 0,-0.1 0,-0.2 0,-0.4 0,-0.1 0,-0.3 0,-0.4 0,-0.1 0,-0.3 0,-0.4 0,-0.1 0,-0.2 0,-0.3 -0.2,0 -0.3,0.1 -0.4,0.3 z"
         id="path7312"
         inkscape:connector-curvature="0" /></g></g><g
     transform="translate(248.01998,-128.04)"
     id="g7326"><g
       id="g7320"><circle
         style="fill:#0088ce"
         cx="391.70001"
         cy="237.3"
         r="9.5"
         id="circle7318" /></g><g
       id="g7324"><path
         style="fill:#ffffff"
         d="m 394.3,239.3 c -0.1,0.3 -0.3,0.6 -0.6,0.8 -0.3,0.2 -0.6,0.4 -0.9,0.5 -0.4,0.1 -0.8,0.2 -1.2,0.2 -0.5,0 -1,-0.1 -1.4,-0.2 -0.4,-0.1 -0.9,-0.3 -1.3,-0.6 l 0.7,-1.2 c 0.3,0.2 0.7,0.3 1,0.4 0.3,0.1 0.7,0.2 1,0.2 0.5,0 0.8,-0.1 1.1,-0.3 0.3,-0.2 0.4,-0.5 0.4,-0.9 0,-0.2 0,-0.3 -0.1,-0.5 -0.1,-0.1 -0.1,-0.2 -0.3,-0.3 -0.1,-0.1 -0.2,-0.1 -0.4,-0.2 -0.2,-0.1 -0.3,-0.1 -0.5,-0.1 -0.3,0 -0.6,0 -0.8,0.1 -0.2,0.1 -0.4,0.2 -0.6,0.3 l -1.3,-0.5 0.2,-3.5 h 4.7 v 1.4 h -3.4 l -0.1,1.2 c 0.2,-0.1 0.4,-0.2 0.6,-0.2 0.2,-0.1 0.5,-0.1 0.8,-0.1 0.4,0 0.7,0.1 1,0.2 0.3,0.1 0.5,0.3 0.8,0.5 0.2,0.2 0.4,0.5 0.5,0.7 0.1,0.2 0.2,0.6 0.2,0.9 0.1,0.5 0.1,0.9 -0.1,1.2 z"
         id="path7322"
         inkscape:connector-curvature="0" /></g></g><g
     transform="translate(141.99902,41.909997)"
     id="g7336"><g
       id="g7330"><circle
         style="fill:#0088ce"
         cx="497.79999"
         cy="237.3"
         r="9.5"
         id="circle7328" /></g><g
       id="g7334"><path
         style="fill:#ffffff"
         d="m 500.5,239.3 c -0.2,0.3 -0.4,0.5 -0.6,0.8 -0.3,0.2 -0.6,0.4 -0.9,0.5 -0.4,0.1 -0.7,0.2 -1.2,0.2 -0.4,0 -0.8,-0.1 -1.1,-0.2 -0.3,-0.1 -0.6,-0.3 -0.9,-0.5 -0.3,-0.2 -0.4,-0.5 -0.6,-0.9 -0.1,-0.4 -0.2,-0.8 -0.2,-1.3 0,-0.3 0,-0.6 0.1,-1 0.1,-0.3 0.2,-0.7 0.3,-1 0.2,-0.3 0.3,-0.6 0.6,-0.9 0.2,-0.3 0.5,-0.6 0.9,-0.8 0.4,-0.2 0.8,-0.4 1.2,-0.5 0.5,-0.1 1,-0.2 1.6,-0.2 v 1.4 c -0.8,0 -1.5,0.1 -2,0.4 -0.5,0.3 -0.9,0.7 -1.1,1.2 0.2,-0.2 0.5,-0.3 0.7,-0.3 0.2,-0.1 0.5,-0.1 0.9,-0.1 0.3,0 0.7,0 1,0.1 0.3,0.1 0.6,0.2 0.8,0.4 0.2,0.2 0.4,0.4 0.5,0.7 0.1,0.3 0.2,0.6 0.2,1 0,0.4 -0.1,0.8 -0.2,1 z m -1.6,-1.7 c -0.2,-0.2 -0.6,-0.2 -1,-0.2 -0.5,0 -0.8,0.1 -1.1,0.2 -0.2,0.2 -0.4,0.4 -0.4,0.8 0,0.3 0.1,0.6 0.3,0.8 0.2,0.2 0.6,0.3 1,0.3 0.5,0 0.8,-0.1 1.1,-0.3 0.3,-0.2 0.4,-0.4 0.4,-0.8 0.1,-0.4 -0.1,-0.7 -0.3,-0.8 z"
         id="path7332"
         inkscape:connector-curvature="0" /></g></g><g
     id="g2196"
     transform="matrix(0,1,1,0,410.0497,-536.5)"
     style="fill:#555753"><polygon
       id="polygon2194"
       points="701.5,209.8 706.5,201.2 696.5,201.2 "
       style="fill:#555753" /></g><g
     transform="matrix(0,-1,-1,0,778.88436,1083.1957)"
     id="g7604"
     style="fill:#555753"><polygon
       style="fill:#555753"
       points="706.5,201.2 696.5,201.2 701.5,209.8 "
       id="polygon7602" /></g><g
     id="g7620"
     transform="rotate(90,468.60782,102.10782)" /><g
     id="g7628"
     transform="rotate(-180,698.25,274.9)"
     style="fill:#555753"><polygon
       id="polygon7626"
       points="701.5,209.8 706.5,201.2 696.5,201.2 "
       style="fill:#555753" /></g><g
     transform="rotate(-180,399.83438,268.74221)"
     id="g7640"
     style="fill:#555753"><polygon
       style="fill:#555753"
       points="701.5,209.8 706.5,201.2 696.5,201.2 "
       id="polygon7638" /></g><rect
     style="vector-effect:none;fill:none;fill-opacity:1;stroke:none;stroke-width:3.77952766;stroke-linecap:round;stroke-linejoin:round;stroke-miterlimit:4;stroke-dasharray:none;stroke-dashoffset:0;stroke-opacity:1"
     id="rect7694"
     width="125.91564"
     height="41.69566"
     x="-695"
     y="340"
     transform="scale(-1,1)" /><path
     style="opacity:0.95999995;vector-effect:none;fill:none;fill-opacity:1;stroke:#555753;stroke-width:1.33333337;stroke-linecap:round;stroke-linejoin:miter;stroke-miterlimit:4;stroke-dasharray:none;stroke-dashoffset:0;stroke-opacity:1"
     d="M 574.04767,381.84441 H 695.11668 V 345.26474"
     id="rect7701"
     inkscape:connector-curvature="0"
     sodipodi:nodetypes="ccc" /><path
     style="opacity:0.95999995;vector-effect:none;fill:none;fill-opacity:1;stroke:#555753;stroke-width:1.33333333;stroke-linecap:square;stroke-linejoin:miter;stroke-miterlimit:4;stroke-dasharray:none;stroke-dashoffset:0;stroke-opacity:1"
     d="m 98.16872,332.39276 v 49.30288 H 248.388"
     id="rect7704"
     inkscape:connector-curvature="0"
     sodipodi:nodetypes="ccc" /><g
     transform="matrix(0,-1,-1,0,778.88436,866.5)"
     id="g7709"
     style="fill:#555753"><polygon
       style="fill:#555753"
       points="706.5,201.2 696.5,201.2 701.5,209.8 "
       id="polygon7707" /></g><path
     style="fill:#0088ce;fill-opacity:1;stroke:#555753;stroke-width:1.33333333;stroke-linecap:butt;stroke-linejoin:miter;stroke-opacity:1;stroke-miterlimit:4;stroke-dasharray:none"
     d="M 615.90117,165 H 573.54792"
     id="path7711"
     inkscape:connector-curvature="0" /><g
     transform="matrix(0,1,1,0,229.28437,-536.49999)"
     id="g7608"
     style="fill:#555753"><polygon
       style="fill:#555753"
       points="701.5,209.8 706.5,201.2 696.5,201.2 "
       id="polygon7606" /></g><g
     id="g7632"
     transform="matrix(0,-1,-1,0,608.88439,866.50001)"
     style="fill:#555753"><polygon
       id="polygon7630"
       points="701.5,209.8 706.5,201.2 696.5,201.2 "
       style="fill:#555753" /></g><path
     inkscape:connector-curvature="0"
     id="path7713"
     d="M 433.99222,165.00001 H 403.85917"
     style="fill:none;fill-opacity:1;stroke:#555753;stroke-width:1.33333333;stroke-linecap:butt;stroke-linejoin:miter;stroke-opacity:1;stroke-miterlimit:4;stroke-dasharray:none" /><g
     id="g7724"
     transform="matrix(0,1,1,0,229.28437,-376.49999)"
     style="fill:#555753"><polygon
       id="polygon7722"
       points="706.5,201.2 696.5,201.2 701.5,209.8 "
       style="fill:#555753" /></g><path
     style="fill:#0088ce;fill-opacity:1;stroke:#555753;stroke-width:1.33333337;stroke-linecap:butt;stroke-linejoin:miter;stroke-miterlimit:4;stroke-dasharray:none;stroke-opacity:1"
     d="M 433.99222,325.00001 H 399.159"
     id="path7730"
     inkscape:connector-curvature="0"
     sodipodi:nodetypes="cc" /><text
     xml:space="preserve"
     style="font-style:normal;font-variant:normal;font-weight:bold;font-stretch:normal;font-size:10.66666698px;line-height:1.25;font-family:Overpass;-inkscape-font-specification:'Overpass Bold';letter-spacing:0px;word-spacing:0px;writing-mode:lr-tb;fill:#0088ce;fill-opacity:1"
     x="666.37274"
     y="324.54706"
     id="text7736"><tspan
       sodipodi:role="line"
       id="tspan7734"
       x="666.37274"
       y="324.54706"
       style="font-style:normal;font-variant:normal;font-weight:bold;font-stretch:normal;font-size:10.66666698px;font-family:Overpass;-inkscape-font-specification:'Overpass Bold';fill:#0088ce;fill-opacity:1">DCI CLIENT</tspan></text>
<text
     id="text7750"
     y="194.061"
     x="677.5246"
     style="font-style:normal;font-variant:normal;font-weight:bold;font-stretch:normal;font-size:10.66666698px;line-height:1.25;font-family:Overpass;-inkscape-font-specification:'Overpass Bold';letter-spacing:0px;word-spacing:0px;writing-mode:lr-tb;fill:#0088ce;fill-opacity:1"
     xml:space="preserve"><tspan
       y="194.061"
       x="677.5246"
       id="tspan7748"
       sodipodi:role="line"
       style="font-style:normal;font-variant:normal;font-weight:bold;font-stretch:normal;font-size:10.66666698px;font-family:Overpass;-inkscape-font-specification:'Overpass Bold';fill:#0088ce;fill-opacity:1">AGENT</tspan></text>
<text
     id="text7754"
     y="293.06"
     x="495.64203"
     style="font-style:normal;font-variant:normal;font-weight:bold;font-stretch:normal;font-size:10.66666698px;line-height:1.25;font-family:Overpass;-inkscape-font-specification:'Overpass Bold';letter-spacing:0px;word-spacing:0px;writing-mode:lr-tb;fill:#0088ce;fill-opacity:1"
     xml:space="preserve"><tspan
       style="font-style:normal;font-variant:normal;font-weight:bold;font-stretch:normal;font-size:10.66666698px;font-family:Overpass;-inkscape-font-specification:'Overpass Bold';fill:#0088ce;fill-opacity:1"
       y="293.06"
       x="495.64203"
       id="tspan7752"
       sodipodi:role="line">API</tspan></text>
<text
     id="text7762"
     y="364.27701"
     x="303.74564"
     style="font-style:normal;font-variant:normal;font-weight:bold;font-stretch:normal;font-size:10.66666698px;line-height:1.25;font-family:Overpass;-inkscape-font-specification:'Overpass Bold';letter-spacing:0px;word-spacing:0px;writing-mode:lr-tb;fill:#0088ce;fill-opacity:1"
     xml:space="preserve"><tspan
       style="font-style:normal;font-variant:normal;font-weight:bold;font-stretch:normal;font-size:10.66666698px;font-family:Overpass;-inkscape-font-specification:'Overpass Bold';fill:#0088ce;fill-opacity:1"
       y="364.27701"
       x="303.74564"
       id="tspan7760"
       sodipodi:role="line">FEEDER</tspan></text>
<text
     xml:space="preserve"
     style="font-style:normal;font-variant:normal;font-weight:bold;font-stretch:normal;font-size:10.66666698px;line-height:1.25;font-family:Overpass;-inkscape-font-specification:'Overpass Bold';letter-spacing:0px;word-spacing:0px;writing-mode:lr-tb;fill:#0088ce;fill-opacity:1"
     x="61.940842"
     y="296.64999"
     id="text7766"><tspan
       sodipodi:role="line"
       id="tspan7764"
       x="61.940842"
       y="296.64999"
       style="font-style:normal;font-variant:normal;font-weight:bold;font-stretch:normal;font-size:10.66666698px;font-family:Overpass;-inkscape-font-specification:'Overpass Bold';fill:#0088ce;fill-opacity:1">COMPONENTS</tspan></text>
<text
     xml:space="preserve"
     style="font-style:normal;font-variant:normal;font-weight:normal;font-stretch:normal;font-size:10.66666698px;line-height:1.25;font-family:Overpass;-inkscape-font-specification:Overpass;letter-spacing:0px;word-spacing:0px;writing-mode:lr-tb;fill:#555752;fill-opacity:1"
     x="14.521536"
     y="424.6449"
     id="text7810"><tspan
       sodipodi:role="line"
       id="tspan7808"
       x="14.521536"
       y="424.6449"
       style="font-style:normal;font-variant:normal;font-weight:normal;font-stretch:normal;font-size:10.66666698px;font-family:Overpass;-inkscape-font-specification:Overpass;fill:#555752;fill-opacity:1">RED HAT</tspan></text>
<text
     id="text7814"
     y="424.6449"
     x="235.25998"
     style="font-style:normal;font-variant:normal;font-weight:normal;font-stretch:normal;font-size:10.66666698px;line-height:1.25;font-family:Overpass;-inkscape-font-specification:Overpass;letter-spacing:0px;word-spacing:0px;writing-mode:lr-tb;fill:#555752;fill-opacity:1"
     xml:space="preserve"><tspan
       style="font-style:normal;font-variant:normal;font-weight:normal;font-stretch:normal;font-size:10.66666698px;font-family:Overpass;-inkscape-font-specification:Overpass;fill:#555752;fill-opacity:1"
       y="424.6449"
       x="235.25998"
       id="tspan7812"
       sodipodi:role="line">DCI</tspan></text>
<text
     xml:space="preserve"
     style="font-style:normal;font-variant:normal;font-weight:normal;font-stretch:normal;font-size:10.66666698px;line-height:1.25;font-family:Overpass;-inkscape-font-specification:Overpass;letter-spacing:0px;word-spacing:0px;writing-mode:lr-tb;fill:#555752;fill-opacity:1"
     x="605.04224"
     y="424.6449"
     id="text7818"><tspan
       sodipodi:role="line"
       x="605.04224"
       y="424.6449"
       style="font-style:normal;font-variant:normal;font-weight:normal;font-stretch:normal;font-size:10.66666698px;font-family:Overpass;-inkscape-font-specification:Overpass;fill:#555752;fill-opacity:1"
       id="tspan7820">Partner</tspan></text>
<g
     id="g1551"
     transform="translate(-4.5170784e-6)"><text
       id="text7758"
       y="211.83701"
       x="280.47797"
       style="font-style:normal;font-variant:normal;font-weight:bold;font-stretch:normal;font-size:10.66666698px;line-height:1.25;font-family:Overpass;-inkscape-font-specification:'Overpass Bold';letter-spacing:0px;word-spacing:0px;writing-mode:lr-tb;fill:#0088ce;fill-opacity:1"
       xml:space="preserve"><tspan
         style="font-style:normal;font-variant:normal;font-weight:bold;font-stretch:normal;font-size:10.66666698px;font-family:Overpass;-inkscape-font-specification:'Overpass Bold';fill:#0088ce;fill-opacity:1"
         y="211.83701"
         x="280.47797"
         id="tspan7756"
         sodipodi:role="line">USER INTERFACE</tspan></text>
<g
       style="fill:#7f7f7f;fill-opacity:1"
       id="g1129"
       inkscape:label="ink_ext_XXXXXX"
       transform="matrix(0.7058782,0,0,-0.7058782,303.04039,189)"><g
         style="fill:#7f7f7f;fill-opacity:1"
         id="g1131"
         transform="scale(0.1)"><path
           d="M 20,20 H 576.25 V 660.004 H 20 Z M 586.25,0 H 10 C 4.47266,0 0,4.47266 0,10 v 660.004 c 0,5.523 4.47266,10 10,10 h 576.25 c 5.527,0 10,-4.477 10,-10 V 10 c 0,-5.52734 -4.473,-10 -10,-10"
           style="fill:#7f7f7f;fill-opacity:1;fill-rule:nonzero;stroke:none"
           id="path1133"
           inkscape:connector-curvature="0" /><path
           d="m 469.355,608.023 c -30.585,0 -55.468,-24.882 -55.468,-55.468 0,-30.59 24.883,-55.481 55.468,-55.481 30.586,0 55.469,24.891 55.469,55.481 0,30.586 -24.883,55.468 -55.469,55.468 z m 0,-125.949 c -38.847,0 -70.468,31.617 -70.468,70.481 0,38.855 31.621,70.468 70.468,70.468 38.868,0 70.469,-31.613 70.469,-70.468 0,-38.864 -31.601,-70.481 -70.469,-70.481"
           style="fill:#7f7f7f;fill-opacity:1;fill-rule:nonzero;stroke:none"
           id="path1135"
           inkscape:connector-curvature="0" /><path
           d="m 469.355,581.957 c -2.07,-8.027 -4.05,-18.383 -4.05,-28.633 0,-1.781 2.273,-4.051 4.05,-4.051 1.778,0 4.051,2.27 4.051,4.051 0,10.25 -1.98,20.606 -4.051,28.633 z m 0,-42.684 c -7.226,0 -14.05,6.832 -14.05,14.051 0,23.332 9.031,46.168 9.402,47.129 1.523,3.801 7.773,3.801 9.297,0 0.371,-0.961 9.402,-23.797 9.402,-47.129 0,-7.219 -6.824,-14.051 -14.051,-14.051"
           style="fill:#7f7f7f;fill-opacity:1;fill-rule:nonzero;stroke:none"
           id="path1137"
           inkscape:connector-curvature="0" /><path
           d="m 513.059,547.543 h -5.93 c -2.754,0 -5,2.238 -5,5 0,2.766 2.246,5 5,5 h 5.93 c 2.761,0 5,-2.234 5,-5 0,-2.762 -2.239,-5 -5,-5"
           style="fill:#7f7f7f;fill-opacity:1;fill-rule:nonzero;stroke:none"
           id="path1139"
           inkscape:connector-curvature="0" /><path
           d="m 431.582,547.543 h -5.93 c -2.761,0 -5,2.238 -5,5 0,2.766 2.239,5 5,5 h 5.93 c 2.754,0 5,-2.234 5,-5 0,-2.762 -2.246,-5 -5,-5"
           style="fill:#7f7f7f;fill-opacity:1;fill-rule:nonzero;stroke:none"
           id="path1141"
           inkscape:connector-curvature="0" /><path
           d="m 500.254,516.645 c -1.289,0 -2.559,0.488 -3.535,1.464 l -4.192,4.176 c -1.953,1.953 -1.953,5.121 0,7.074 1.946,1.954 5.118,1.954 7.075,0 l 4.187,-4.171 c 1.953,-1.954 1.953,-5.125 0,-7.079 -0.976,-0.976 -2.266,-1.464 -3.535,-1.464"
           style="fill:#7f7f7f;fill-opacity:1;fill-rule:nonzero;stroke:none"
           id="path1143"
           inkscape:connector-curvature="0" /><path
           d="m 442.637,574.254 c -1.282,0 -2.559,0.488 -3.535,1.465 l -4.192,4.187 c -1.949,1.953 -1.949,5.117 0,7.071 1.953,1.953 5.117,1.953 7.07,0 l 4.192,-4.188 c 1.953,-1.953 1.953,-5.117 0,-7.07 -0.977,-0.977 -2.254,-1.465 -3.535,-1.465"
           style="fill:#7f7f7f;fill-opacity:1;fill-rule:nonzero;stroke:none"
           id="path1145"
           inkscape:connector-curvature="0" /><path
           d="m 469.348,503.844 c -2.766,0 -5,2.234 -5,5 v 5.918 c 0,2.761 2.234,5 5,5 2.761,0 5,-2.239 5,-5 v -5.918 c 0,-2.766 -2.239,-5 -5,-5"
           style="fill:#7f7f7f;fill-opacity:1;fill-rule:nonzero;stroke:none"
           id="path1147"
           inkscape:connector-curvature="0" /><path
           d="m 438.438,516.645 c -1.282,0 -2.559,0.488 -3.536,1.464 -1.953,1.954 -1.953,5.125 0,7.079 l 4.18,4.171 c 1.953,1.954 5.117,1.954 7.07,0 1.953,-1.953 1.953,-5.121 0,-7.074 l -4.179,-4.176 c -0.977,-0.976 -2.254,-1.464 -3.535,-1.464"
           style="fill:#7f7f7f;fill-opacity:1;fill-rule:nonzero;stroke:none"
           id="path1149"
           inkscape:connector-curvature="0" /><path
           d="m 496.055,574.262 c -1.289,0 -2.559,0.488 -3.535,1.465 -1.954,1.953 -1.954,5.125 0,7.078 l 4.179,4.172 c 1.953,1.953 5.117,1.953 7.071,0 1.953,-1.954 1.953,-5.122 0,-7.075 l -4.18,-4.175 c -0.977,-0.977 -2.266,-1.465 -3.535,-1.465"
           style="fill:#7f7f7f;fill-opacity:1;fill-rule:nonzero;stroke:none"
           id="path1151"
           inkscape:connector-curvature="0" /><path
           d="m 295.945,608.02 c -14.812,0 -28.738,-5.774 -39.226,-16.247 -21.621,-21.632 -21.621,-56.828 0,-78.457 10.476,-10.472 24.402,-16.242 39.219,-16.242 14.824,0 28.757,5.774 39.238,16.25 21.621,21.625 21.621,56.824 0,78.449 -10.481,10.473 -24.414,16.247 -39.231,16.247 z m -0.007,-125.946 c -18.821,0 -36.512,7.328 -49.825,20.637 -27.468,27.48 -27.468,72.191 0,99.668 13.321,13.309 31.016,20.641 49.832,20.641 18.821,0 36.528,-7.332 49.836,-20.641 27.481,-27.477 27.481,-72.184 0,-99.66 -13.308,-13.317 -31.015,-20.645 -49.843,-20.645"
           style="fill:#7f7f7f;fill-opacity:1;fill-rule:nonzero;stroke:none"
           id="path1153"
           inkscape:connector-curvature="0" /><path
           d="m 316.758,573.355 c -7.149,-4.21 -15.879,-10.136 -23.125,-17.394 -0.567,-0.566 -0.938,-1.688 -0.938,-2.859 0,-1.172 0.371,-2.297 0.938,-2.86 1.133,-1.148 4.59,-1.144 5.722,-0.004 7.266,7.262 13.196,15.985 17.403,23.117 z m -20.266,-34.054 c -3.855,0 -7.476,1.414 -9.929,3.867 -2.461,2.453 -3.868,6.07 -3.868,9.934 0,3.863 1.407,7.48 3.868,9.933 16.484,16.508 39.023,26.266 39.98,26.672 1.875,0.805 4.055,0.387 5.5,-1.059 1.441,-1.445 1.863,-3.628 1.062,-5.503 -0.41,-0.954 -10.175,-23.493 -26.679,-39.977 -2.442,-2.453 -6.074,-3.867 -9.934,-3.867"
           style="fill:#7f7f7f;fill-opacity:1;fill-rule:nonzero;stroke:none"
           id="path1155"
           inkscape:connector-curvature="0" /><path
           d="m 326.848,516.645 c -1.282,0 -2.563,0.488 -3.535,1.464 l -4.192,4.192 c -1.953,1.953 -1.953,5.117 0,7.07 1.953,1.953 5.117,1.953 7.07,0 l 4.192,-4.191 c 1.953,-1.953 1.953,-5.117 0,-7.071 -0.981,-0.976 -2.258,-1.464 -3.535,-1.464"
           style="fill:#7f7f7f;fill-opacity:1;fill-rule:nonzero;stroke:none"
           id="path1157"
           inkscape:connector-curvature="0" /><path
           d="m 269.23,574.262 c -1.281,0 -2.558,0.488 -3.539,1.465 l -4.187,4.175 c -1.953,1.953 -1.953,5.121 0,7.075 1.953,1.953 5.117,1.953 7.07,0 l 4.192,-4.172 c 1.953,-1.953 1.953,-5.125 0,-7.078 -0.969,-0.977 -2.258,-1.465 -3.536,-1.465"
           style="fill:#7f7f7f;fill-opacity:1;fill-rule:nonzero;stroke:none"
           id="path1159"
           inkscape:connector-curvature="0" /><path
           d="m 295.938,503.852 c -2.762,0 -5,2.238 -5,5 v 5.918 c 0,2.765 2.238,5 5,5 2.761,0 5,-2.235 5,-5 v -5.918 c 0,-2.762 -2.239,-5 -5,-5"
           style="fill:#7f7f7f;fill-opacity:1;fill-rule:nonzero;stroke:none"
           id="path1161"
           inkscape:connector-curvature="0" /><path
           d="m 295.938,585.328 c -2.754,0 -5,2.235 -5,4.996 v 5.926 c 0,2.766 2.226,5.004 4.992,5.004 h 0.008 c 2.753,0 5,-2.234 5,-4.992 v -5.93 c 0,-2.762 -2.239,-5.004 -5,-5.004 v 0"
           style="fill:#7f7f7f;fill-opacity:1;fill-rule:nonzero;stroke:none"
           id="path1163"
           inkscape:connector-curvature="0" /><path
           d="m 265.039,516.645 c -1.289,0 -2.559,0.488 -3.535,1.464 -1.953,1.95 -1.953,5.118 0,7.071 l 4.18,4.191 c 1.953,1.953 5.117,1.953 7.07,0 1.953,-1.949 1.953,-5.117 0,-7.07 l -4.18,-4.192 c -0.976,-0.976 -2.265,-1.464 -3.535,-1.464"
           style="fill:#7f7f7f;fill-opacity:1;fill-rule:nonzero;stroke:none"
           id="path1165"
           inkscape:connector-curvature="0" /><path
           d="m 258.145,547.563 h -5.918 c -2.754,0 -5,2.238 -5,5 0,2.765 2.246,5 5,5 h 5.918 c 2.773,0 5,-2.235 5,-5 0,-2.762 -2.227,-5 -5,-5"
           style="fill:#7f7f7f;fill-opacity:1;fill-rule:nonzero;stroke:none"
           id="path1167"
           inkscape:connector-curvature="0" /><path
           d="m 339.629,547.563 h -5.918 c -2.766,0 -5,2.238 -5,5 0,2.765 2.234,5 5,5 h 5.918 c 2.754,0 5,-2.235 5,-5 0,-2.762 -2.246,-5 -5,-5"
           style="fill:#7f7f7f;fill-opacity:1;fill-rule:nonzero;stroke:none"
           id="path1169"
           inkscape:connector-curvature="0" /><path
           d="m 122.539,608.02 c -14.812,0 -28.7499,-5.774 -39.2304,-16.247 -21.6289,-21.625 -21.6172,-56.824 0.0117,-78.457 10.4766,-10.472 24.4067,-16.246 39.2187,-16.246 14.824,0 28.75,5.774 39.231,16.246 21.628,21.629 21.628,56.825 0,78.457 -10.481,10.473 -24.407,16.247 -39.231,16.247 z m 0,-125.95 c -18.816,0 -36.5117,7.328 -49.8242,20.641 -13.3085,13.309 -20.6445,31.004 -20.6445,49.832 0,18.828 7.3242,36.523 20.6367,49.836 13.3086,13.309 31.016,20.641 49.832,20.641 18.828,0 36.524,-7.332 49.832,-20.641 27.484,-27.481 27.484,-72.188 0,-99.668 -13.308,-13.313 -31.004,-20.641 -49.832,-20.641"
           style="fill:#7f7f7f;fill-opacity:1;fill-rule:nonzero;stroke:none"
           id="path1171"
           inkscape:connector-curvature="0" /><path
           d="m 123.098,555.797 c -1.172,0 -2.297,-0.363 -2.864,-0.93 -0.566,-0.57 -0.937,-1.699 -0.937,-2.871 0,-1.172 0.371,-2.301 0.937,-2.871 7.266,-7.262 15.977,-13.18 23.118,-17.387 -4.211,7.145 -10.137,15.875 -17.395,23.129 -0.566,0.567 -1.687,0.93 -2.859,0.93 z m 32.007,-40.813 c -0.664,0 -1.335,0.133 -1.968,0.407 -0.949,0.406 -23.489,10.175 -39.973,26.664 -2.461,2.457 -3.867,6.082 -3.867,9.941 0,3.863 1.406,7.488 3.867,9.942 4.902,4.902 14.961,4.902 19.863,0 16.504,-16.508 26.27,-39.032 26.68,-39.985 0.801,-1.879 0.383,-4.058 -1.062,-5.504 -0.957,-0.957 -2.239,-1.465 -3.54,-1.465"
           style="fill:#7f7f7f;fill-opacity:1;fill-rule:nonzero;stroke:none"
           id="path1173"
           inkscape:connector-curvature="0" /><path
           d="m 91.6406,516.645 c -1.2812,0 -2.5586,0.488 -3.5351,1.464 -1.9532,1.954 -1.9532,5.118 0,7.071 l 4.1875,4.191 c 1.9531,1.953 5.1172,1.953 7.0703,0 1.9527,-1.953 1.9527,-5.117 0,-7.07 l -4.1875,-4.192 c -0.9766,-0.976 -2.2578,-1.464 -3.5352,-1.464"
           style="fill:#7f7f7f;fill-opacity:1;fill-rule:nonzero;stroke:none"
           id="path1175"
           inkscape:connector-curvature="0" /><path
           d="m 149.258,574.262 c -1.278,0 -2.559,0.488 -3.535,1.465 -1.953,1.953 -1.953,5.117 0,7.07 l 4.179,4.18 c 1.953,1.953 5.118,1.953 7.071,0 1.953,-1.954 1.953,-5.118 0,-7.071 l -4.18,-4.179 c -0.977,-0.977 -2.258,-1.465 -3.535,-1.465"
           style="fill:#7f7f7f;fill-opacity:1;fill-rule:nonzero;stroke:none"
           id="path1177"
           inkscape:connector-curvature="0" /><path
           d="m 84.7656,547.555 h -5.9179 c -2.7618,0 -5,2.234 -5,5 0,2.761 2.2382,5 5,5 h 5.9179 c 2.7657,0 5,-2.239 5,-5 0,-2.766 -2.2343,-5 -5,-5"
           style="fill:#7f7f7f;fill-opacity:1;fill-rule:nonzero;stroke:none"
           id="path1179"
           inkscape:connector-curvature="0" /><path
           d="m 160.32,547.555 c -2.761,0 -4.988,2.23 -5,4.988 -0.007,2.766 2.239,5.008 4.993,5.012 l 5.925,0.008 c 0.012,0 0.012,0 0.012,0 2.754,0 5,-2.231 5,-4.989 0,-2.765 -2.227,-5.008 -4.988,-5.011 l -5.93,-0.008 c 0,0 0,0 -0.012,0"
           style="fill:#7f7f7f;fill-opacity:1;fill-rule:nonzero;stroke:none"
           id="path1181"
           inkscape:connector-curvature="0" /><path
           d="m 95.832,574.273 c -1.2812,0 -2.5586,0.489 -3.539,1.465 l -4.1875,4.188 c -1.9532,1.953 -1.9532,5.117 0,7.07 1.9531,1.953 5.1172,1.953 7.0703,0 l 4.1875,-4.187 c 1.9527,-1.954 1.9527,-5.118 0,-7.071 -0.9727,-0.976 -2.2539,-1.465 -3.5313,-1.465"
           style="fill:#7f7f7f;fill-opacity:1;fill-rule:nonzero;stroke:none"
           id="path1183"
           inkscape:connector-curvature="0" /><path
           d="m 122.559,585.336 c -2.762,0 -5,2.238 -5,5 v 5.918 c 0,2.766 2.238,5 5,5 2.761,0 5,-2.234 5,-5 v -5.918 c 0,-2.762 -2.239,-5 -5,-5"
           style="fill:#7f7f7f;fill-opacity:1;fill-rule:nonzero;stroke:none"
           id="path1185"
           inkscape:connector-curvature="0" /><path
           d="m 122.559,503.871 c -2.762,0 -5,2.238 -5,5 v 5.91 c 0,2.762 2.238,5 5,5 2.761,0 5,-2.238 5,-5 v -5.91 c 0,-2.762 -2.239,-5 -5,-5"
           style="fill:#7f7f7f;fill-opacity:1;fill-rule:nonzero;stroke:none"
           id="path1187"
           inkscape:connector-curvature="0" /><path
           d="m 437.402,187.227 c -4.14,0 -7.5,3.359 -7.5,7.5 v 114.55 c 0,4.141 3.36,7.5 7.5,7.5 4.141,0 7.5,-3.359 7.5,-7.5 v -114.55 c 0,-4.141 -3.359,-7.5 -7.5,-7.5"
           style="fill:#7f7f7f;fill-opacity:1;fill-rule:nonzero;stroke:none"
           id="path1189"
           inkscape:connector-curvature="0" /><path
           d="m 437.402,326.094 c -4.14,0 -7.5,3.359 -7.5,7.5 v 62.125 c 0,4.14 3.36,7.5 7.5,7.5 4.141,0 7.5,-3.36 7.5,-7.5 v -62.125 c 0,-4.141 -3.359,-7.5 -7.5,-7.5"
           style="fill:#7f7f7f;fill-opacity:1;fill-rule:nonzero;stroke:none"
           id="path1191"
           inkscape:connector-curvature="0" /><path
           d="m 425.469,318.75 h 23.886 v 5.352 h -23.886 z m 28.886,-10 h -33.886 c -2.766,0 -5,2.246 -5,5 v 15.352 c 0,2.753 2.234,5 5,5 h 33.886 c 2.774,0 5,-2.247 5,-5 V 313.75 c 0,-2.754 -2.226,-5 -5,-5"
           style="fill:#7f7f7f;fill-opacity:1;fill-rule:nonzero;stroke:none"
           id="path1193"
           inkscape:connector-curvature="0" /><path
           d="m 358.906,187.227 c -4.14,0 -7.5,3.359 -7.5,7.5 v 65.039 c 0,4.14 3.36,7.5 7.5,7.5 4.141,0 7.5,-3.36 7.5,-7.5 v -65.039 c 0,-4.141 -3.359,-7.5 -7.5,-7.5"
           style="fill:#7f7f7f;fill-opacity:1;fill-rule:nonzero;stroke:none"
           id="path1195"
           inkscape:connector-curvature="0" /><path
           d="m 358.906,276.582 c -4.14,0 -7.5,3.359 -7.5,7.5 v 111.637 c 0,4.14 3.36,7.5 7.5,7.5 4.141,0 7.5,-3.36 7.5,-7.5 V 284.082 c 0,-4.141 -3.359,-7.5 -7.5,-7.5"
           style="fill:#7f7f7f;fill-opacity:1;fill-rule:nonzero;stroke:none"
           id="path1197"
           inkscape:connector-curvature="0" /><path
           d="m 346.973,269.258 h 23.886 v 5.332 h -23.886 z m 28.886,-10 h -33.886 c -2.774,0 -5,2.226 -5,5 v 15.332 c 0,2.773 2.226,5 5,5 h 33.886 c 2.774,0 5,-2.227 5,-5 v -15.332 c 0,-2.774 -2.226,-5 -5,-5"
           style="fill:#7f7f7f;fill-opacity:1;fill-rule:nonzero;stroke:none"
           id="path1199"
           inkscape:connector-curvature="0" /><path
           d="m 280.41,187.227 c -4.14,0 -7.5,3.359 -7.5,7.5 v 77.207 c 0,4.14 3.36,7.5 7.5,7.5 4.141,0 7.5,-3.36 7.5,-7.5 v -77.207 c 0,-4.141 -3.359,-7.5 -7.5,-7.5"
           style="fill:#7f7f7f;fill-opacity:1;fill-rule:nonzero;stroke:none"
           id="path1201"
           inkscape:connector-curvature="0" /><path
           d="m 280.41,288.75 c -4.14,0 -7.5,3.359 -7.5,7.5 v 99.469 c 0,4.14 3.36,7.5 7.5,7.5 4.141,0 7.5,-3.36 7.5,-7.5 V 296.25 c 0,-4.141 -3.359,-7.5 -7.5,-7.5"
           style="fill:#7f7f7f;fill-opacity:1;fill-rule:nonzero;stroke:none"
           id="path1203"
           inkscape:connector-curvature="0" /><path
           d="m 268.477,281.406 h 23.886 v 5.352 h -23.886 z m 28.886,-10 h -33.886 c -2.774,0 -5,2.246 -5,5 v 15.352 c 0,2.754 2.226,5 5,5 h 33.886 c 2.766,0 5,-2.246 5,-5 v -15.352 c 0,-2.754 -2.234,-5 -5,-5"
           style="fill:#7f7f7f;fill-opacity:1;fill-rule:nonzero;stroke:none"
           id="path1205"
           inkscape:connector-curvature="0" /><path
           d="m 189.727,342.012 c -2.754,0 -5,2.23 -5,4.996 v 5.633 c 0,2.765 2.246,5 5,5 2.773,0 5,-2.235 5,-5 v -5.633 c 0,-2.766 -2.227,-4.996 -5,-4.996"
           style="fill:#7f7f7f;fill-opacity:1;fill-rule:nonzero;stroke:none"
           id="path1207"
           inkscape:connector-curvature="0" /><path
           d="m 189.727,392.633 c -2.754,0 -5,2.234 -5,5 v 5.625 c 0,2.762 2.246,5 5,5 2.773,0 5,-2.238 5,-5 v -5.625 c 0,-2.766 -2.227,-5 -5,-5"
           style="fill:#7f7f7f;fill-opacity:1;fill-rule:nonzero;stroke:none"
           id="path1209"
           inkscape:connector-curvature="0" /><path
           d="m 167.227,370.133 h -5.625 c -2.754,0 -5,2.234 -5,5 0,2.762 2.246,5 5,5 h 5.625 c 2.773,0 5,-2.238 5,-5 0,-2.766 -2.227,-5 -5,-5"
           style="fill:#7f7f7f;fill-opacity:1;fill-rule:nonzero;stroke:none"
           id="path1211"
           inkscape:connector-curvature="0" /><path
           d="m 217.852,370.133 h -5.625 c -2.762,0 -5,2.234 -5,5 0,2.762 2.238,5 5,5 h 5.625 c 2.773,0 5,-2.238 5,-5 0,-2.766 -2.227,-5 -5,-5"
           style="fill:#7f7f7f;fill-opacity:1;fill-rule:nonzero;stroke:none"
           id="path1213"
           inkscape:connector-curvature="0" /><path
           d="m 169.844,350.25 c -1.289,0 -2.571,0.488 -3.543,1.465 -1.946,1.961 -1.946,5.125 0.008,7.078 l 3.984,3.984 c 1.953,1.934 5.117,1.946 7.07,-0.007 1.953,-1.965 1.953,-5.129 0,-7.082 l -3.984,-3.985 c -0.977,-0.965 -2.266,-1.453 -3.535,-1.453"
           style="fill:#7f7f7f;fill-opacity:1;fill-rule:nonzero;stroke:none"
           id="path1215"
           inkscape:connector-curvature="0" /><path
           d="m 205.625,386.039 c -1.27,0 -2.559,0.488 -3.535,1.465 -1.953,1.953 -1.953,5.117 0,7.07 l 3.984,3.985 c 1.953,1.953 5.117,1.953 7.071,0 1.953,-1.954 1.953,-5.118 0,-7.071 l -3.985,-3.984 c -0.976,-0.977 -2.246,-1.465 -3.535,-1.465"
           style="fill:#7f7f7f;fill-opacity:1;fill-rule:nonzero;stroke:none"
           id="path1217"
           inkscape:connector-curvature="0" /><path
           d="m 173.828,386.031 c -1.269,0 -2.558,0.489 -3.535,1.465 l -3.984,3.992 c -1.954,1.953 -1.954,5.117 0,7.071 1.953,1.953 5.117,1.953 7.07,0 l 3.984,-3.993 c 1.953,-1.953 1.953,-5.117 0,-7.07 -0.976,-0.976 -2.246,-1.465 -3.535,-1.465"
           style="fill:#7f7f7f;fill-opacity:1;fill-rule:nonzero;stroke:none"
           id="path1219"
           inkscape:connector-curvature="0" /><path
           d="m 209.609,350.25 c -1.269,0 -2.558,0.488 -3.535,1.465 l -3.965,3.965 c -1.953,1.953 -1.953,5.117 0,7.07 1.954,1.953 5.118,1.953 7.071,0 l 3.965,-3.965 c 1.953,-1.953 1.953,-5.117 0,-7.07 -0.977,-0.977 -2.247,-1.465 -3.536,-1.465"
           style="fill:#7f7f7f;fill-opacity:1;fill-rule:nonzero;stroke:none"
           id="path1221"
           inkscape:connector-curvature="0" /><path
           d="m 189.727,392.633 c -9.649,0 -17.5,-7.852 -17.5,-17.5 0,-9.649 7.851,-17.5 17.5,-17.5 9.648,0 17.5,7.851 17.5,17.5 0,9.648 -7.852,17.5 -17.5,17.5 z m 0,-45 c -15.157,0 -27.5,12.332 -27.5,27.5 0,15.164 12.343,27.5 27.5,27.5 15.175,0 27.5,-12.336 27.5,-27.5 0,-15.168 -12.325,-27.5 -27.5,-27.5"
           style="fill:#7f7f7f;fill-opacity:1;fill-rule:nonzero;stroke:none"
           id="path1223"
           inkscape:connector-curvature="0" /><path
           d="m 91.8867,342.012 c -2.7656,0 -5,2.23 -5,4.996 v 5.633 c 0,2.765 2.2344,5 5,5 2.7617,0 5,-2.235 5,-5 v -5.633 c 0,-2.766 -2.2383,-4.996 -5,-4.996"
           style="fill:#7f7f7f;fill-opacity:1;fill-rule:nonzero;stroke:none"
           id="path1225"
           inkscape:connector-curvature="0" /><path
           d="m 91.8867,392.633 c -2.7656,0 -5,2.234 -5,5 v 5.625 c 0,2.762 2.2344,5 5,5 2.7617,0 5,-2.238 5,-5 v -5.625 c 0,-2.766 -2.2383,-5 -5,-5"
           style="fill:#7f7f7f;fill-opacity:1;fill-rule:nonzero;stroke:none"
           id="path1227"
           inkscape:connector-curvature="0" /><path
           d="m 69.3867,370.133 h -5.625 c -2.7656,0 -5,2.234 -5,5 0,2.762 2.2344,5 5,5 h 5.625 c 2.7617,0 5,-2.238 5,-5 0,-2.766 -2.2383,-5 -5,-5"
           style="fill:#7f7f7f;fill-opacity:1;fill-rule:nonzero;stroke:none"
           id="path1229"
           inkscape:connector-curvature="0" /><path
           d="m 120.012,370.133 h -5.637 c -2.754,0 -5,2.234 -5,5 0,2.762 2.246,5 5,5 h 5.637 c 2.761,0 5,-2.238 5,-5 0,-2.766 -2.239,-5 -5,-5"
           style="fill:#7f7f7f;fill-opacity:1;fill-rule:nonzero;stroke:none"
           id="path1231"
           inkscape:connector-curvature="0" /><path
           d="m 71.9922,350.25 c -1.2774,0 -2.5586,0.488 -3.5352,1.465 -1.9531,1.961 -1.9531,5.125 0,7.078 l 3.9844,3.984 c 1.9531,1.934 5.1289,1.946 7.082,-0.007 1.9414,-1.965 1.9414,-5.129 -0.0117,-7.082 l -3.9844,-3.985 c -0.9765,-0.965 -2.2539,-1.453 -3.5351,-1.453"
           style="fill:#7f7f7f;fill-opacity:1;fill-rule:nonzero;stroke:none"
           id="path1233"
           inkscape:connector-curvature="0" /><path
           d="m 107.781,386.039 c -1.277,0 -2.554,0.488 -3.535,1.465 -1.949,1.953 -1.949,5.117 0,7.07 l 3.984,3.985 c 1.958,1.953 5.122,1.953 7.075,0 1.953,-1.954 1.953,-5.118 0,-7.071 l -3.989,-3.984 c -0.972,-0.977 -2.253,-1.465 -3.535,-1.465"
           style="fill:#7f7f7f;fill-opacity:1;fill-rule:nonzero;stroke:none"
           id="path1235"
           inkscape:connector-curvature="0" /><path
           d="m 75.9844,386.031 c -1.2774,0 -2.5586,0.489 -3.5313,1.465 l -3.9961,3.992 c -1.9531,1.953 -1.9531,5.117 0,7.071 1.9532,1.953 5.1172,1.953 7.0703,0 l 3.9961,-3.993 c 1.9493,-1.953 1.9493,-5.117 0,-7.07 -0.9804,-0.976 -2.2578,-1.465 -3.539,-1.465"
           style="fill:#7f7f7f;fill-opacity:1;fill-rule:nonzero;stroke:none"
           id="path1237"
           inkscape:connector-curvature="0" /><path
           d="m 111.77,350.25 c -1.282,0 -2.559,0.488 -3.54,1.465 l -3.96,3.965 c -1.957,1.953 -1.957,5.117 0,7.07 1.953,1.953 5.117,1.953 7.07,0 l 3.965,-3.965 c 1.953,-1.953 1.953,-5.117 0,-7.07 -0.981,-0.977 -2.258,-1.465 -3.535,-1.465"
           style="fill:#7f7f7f;fill-opacity:1;fill-rule:nonzero;stroke:none"
           id="path1239"
           inkscape:connector-curvature="0" /><path
           d="m 91.8867,392.633 c -9.6523,0 -17.5,-7.852 -17.5,-17.5 0,-9.649 7.8477,-17.5 17.5,-17.5 9.6443,0 17.5003,7.851 17.5003,17.5 0,9.648 -7.856,17.5 -17.5003,17.5 z m 0,-45 c -15.1679,0 -27.5,12.332 -27.5,27.5 0,15.164 12.3321,27.5 27.5,27.5 15.1643,0 27.5003,-12.336 27.5003,-27.5 0,-15.168 -12.336,-27.5 -27.5003,-27.5"
           style="fill:#7f7f7f;fill-opacity:1;fill-rule:nonzero;stroke:none"
           id="path1241"
           inkscape:connector-curvature="0" /><path
           d="m 189.727,243.672 c -2.754,0 -5,2.246 -5,5 v 5.625 c 0,2.773 2.246,5 5,5 2.773,0 5,-2.227 5,-5 v -5.625 c 0,-2.754 -2.227,-5 -5,-5"
           style="fill:#7f7f7f;fill-opacity:1;fill-rule:nonzero;stroke:none"
           id="path1243"
           inkscape:connector-curvature="0" /><path
           d="m 189.727,294.297 c -2.754,0 -5,2.246 -5,5 v 5.625 c 0,2.773 2.246,5 5,5 2.773,0 5,-2.227 5,-5 v -5.625 c 0,-2.754 -2.227,-5 -5,-5"
           style="fill:#7f7f7f;fill-opacity:1;fill-rule:nonzero;stroke:none"
           id="path1245"
           inkscape:connector-curvature="0" /><path
           d="m 167.227,271.797 h -5.625 c -2.754,0 -5,2.246 -5,5 0,2.773 2.246,5 5,5 h 5.625 c 2.773,0 5,-2.227 5,-5 0,-2.754 -2.227,-5 -5,-5"
           style="fill:#7f7f7f;fill-opacity:1;fill-rule:nonzero;stroke:none"
           id="path1247"
           inkscape:connector-curvature="0" /><path
           d="m 217.852,271.797 h -5.625 c -2.762,0 -5,2.246 -5,5 0,2.773 2.238,5 5,5 h 5.625 c 2.773,0 5,-2.227 5,-5 0,-2.754 -2.227,-5 -5,-5"
           style="fill:#7f7f7f;fill-opacity:1;fill-rule:nonzero;stroke:none"
           id="path1249"
           inkscape:connector-curvature="0" /><path
           d="m 169.844,251.914 c -1.289,0 -2.571,0.488 -3.543,1.465 -1.946,1.953 -1.946,5.117 0.008,7.07 l 3.984,3.985 c 1.953,1.953 5.117,1.953 7.07,0 1.953,-1.954 1.953,-5.118 0,-7.071 l -3.984,-3.984 c -0.977,-0.977 -2.266,-1.465 -3.535,-1.465"
           style="fill:#7f7f7f;fill-opacity:1;fill-rule:nonzero;stroke:none"
           id="path1251"
           inkscape:connector-curvature="0" /><path
           d="m 205.625,287.695 c -1.27,0 -2.559,0.489 -3.535,1.465 -1.953,1.953 -1.953,5.117 0,7.07 l 3.984,3.985 c 1.953,1.953 5.117,1.953 7.071,0 1.953,-1.953 1.953,-5.117 0,-7.07 l -3.985,-3.985 c -0.976,-0.976 -2.246,-1.465 -3.535,-1.465"
           style="fill:#7f7f7f;fill-opacity:1;fill-rule:nonzero;stroke:none"
           id="path1253"
           inkscape:connector-curvature="0" /><path
           d="m 173.828,287.695 c -1.269,0 -2.551,0.489 -3.523,1.465 l -3.996,3.985 c -1.954,1.953 -1.954,5.117 -0.008,7.07 1.953,1.953 5.113,1.953 7.066,0 l 3.996,-3.985 c 1.953,-1.933 1.953,-5.117 0.008,-7.07 -0.976,-0.976 -2.254,-1.465 -3.543,-1.465"
           style="fill:#7f7f7f;fill-opacity:1;fill-rule:nonzero;stroke:none"
           id="path1255"
           inkscape:connector-curvature="0" /><path
           d="m 209.609,251.914 c -1.269,0 -2.558,0.488 -3.535,1.465 l -3.965,3.965 c -1.953,1.953 -1.953,5.117 0,7.07 1.954,1.953 5.118,1.953 7.071,0 l 3.965,-3.965 c 1.953,-1.953 1.953,-5.117 0,-7.07 -0.977,-0.977 -2.247,-1.465 -3.536,-1.465"
           style="fill:#7f7f7f;fill-opacity:1;fill-rule:nonzero;stroke:none"
           id="path1257"
           inkscape:connector-curvature="0" /><path
           d="m 189.727,294.297 c -9.649,0 -17.5,-7.852 -17.5,-17.5 0,-9.649 7.851,-17.5 17.5,-17.5 9.648,0 17.5,7.851 17.5,17.5 0,9.648 -7.852,17.5 -17.5,17.5 z m 0,-45 c -15.157,0 -27.5,12.344 -27.5,27.5 0,15.176 12.343,27.5 27.5,27.5 15.175,0 27.5,-12.324 27.5,-27.5 0,-15.156 -12.325,-27.5 -27.5,-27.5"
           style="fill:#7f7f7f;fill-opacity:1;fill-rule:nonzero;stroke:none"
           id="path1259"
           inkscape:connector-curvature="0" /><path
           d="m 91.8867,243.672 c -2.7656,0 -5,2.246 -5,5 v 5.625 c 0,2.773 2.2344,5 5,5 2.7617,0 5,-2.227 5,-5 v -5.625 c 0,-2.754 -2.2383,-5 -5,-5"
           style="fill:#7f7f7f;fill-opacity:1;fill-rule:nonzero;stroke:none"
           id="path1261"
           inkscape:connector-curvature="0" /><path
           d="m 91.8867,294.297 c -2.7656,0 -5,2.246 -5,5 v 5.625 c 0,2.773 2.2344,5 5,5 2.7617,0 5,-2.227 5,-5 v -5.625 c 0,-2.754 -2.2383,-5 -5,-5"
           style="fill:#7f7f7f;fill-opacity:1;fill-rule:nonzero;stroke:none"
           id="path1263"
           inkscape:connector-curvature="0" /><path
           d="m 69.3867,271.797 h -5.625 c -2.7656,0 -5,2.246 -5,5 0,2.773 2.2344,5 5,5 h 5.625 c 2.7617,0 5,-2.227 5,-5 0,-2.754 -2.2383,-5 -5,-5"
           style="fill:#7f7f7f;fill-opacity:1;fill-rule:nonzero;stroke:none"
           id="path1265"
           inkscape:connector-curvature="0" /><path
           d="m 120.012,271.797 h -5.637 c -2.754,0 -5,2.246 -5,5 0,2.773 2.246,5 5,5 h 5.637 c 2.761,0 5,-2.227 5,-5 0,-2.754 -2.239,-5 -5,-5"
           style="fill:#7f7f7f;fill-opacity:1;fill-rule:nonzero;stroke:none"
           id="path1267"
           inkscape:connector-curvature="0" /><path
           d="m 71.9922,251.914 c -1.2774,0 -2.5586,0.488 -3.5352,1.465 -1.9531,1.953 -1.9531,5.117 0,7.07 l 3.9844,3.985 c 1.9531,1.953 5.1289,1.953 7.082,0 1.9414,-1.954 1.9414,-5.118 -0.0117,-7.071 l -3.9844,-3.984 c -0.9765,-0.977 -2.2539,-1.465 -3.5351,-1.465"
           style="fill:#7f7f7f;fill-opacity:1;fill-rule:nonzero;stroke:none"
           id="path1269"
           inkscape:connector-curvature="0" /><path
           d="m 107.781,287.695 c -1.277,0 -2.554,0.489 -3.535,1.465 -1.949,1.953 -1.949,5.117 0,7.07 l 3.984,3.985 c 1.958,1.953 5.122,1.953 7.075,0 1.953,-1.953 1.953,-5.117 0,-7.07 l -3.989,-3.985 c -0.972,-0.976 -2.253,-1.465 -3.535,-1.465"
           style="fill:#7f7f7f;fill-opacity:1;fill-rule:nonzero;stroke:none"
           id="path1271"
           inkscape:connector-curvature="0" /><path
           d="m 75.9844,287.695 c -1.2774,0 -2.5469,0.489 -3.5235,1.465 l -4.0039,3.985 c -1.9531,1.953 -1.9531,5.117 0,7.07 1.9532,1.953 5.1172,1.953 7.0703,0 l 3.9844,-3.985 c 1.961,-1.933 1.961,-5.117 0.0196,-7.07 -0.9766,-0.976 -2.2657,-1.465 -3.5469,-1.465"
           style="fill:#7f7f7f;fill-opacity:1;fill-rule:nonzero;stroke:none"
           id="path1273"
           inkscape:connector-curvature="0" /><path
           d="m 111.77,251.914 c -1.282,0 -2.559,0.488 -3.54,1.465 l -3.96,3.965 c -1.957,1.953 -1.957,5.117 0,7.07 1.953,1.953 5.117,1.953 7.07,0 l 3.965,-3.965 c 1.953,-1.953 1.953,-5.117 0,-7.07 -0.981,-0.977 -2.258,-1.465 -3.535,-1.465"
           style="fill:#7f7f7f;fill-opacity:1;fill-rule:nonzero;stroke:none"
           id="path1275"
           inkscape:connector-curvature="0" /><path
           d="m 91.8867,294.297 c -9.6523,0 -17.5,-7.852 -17.5,-17.5 0,-9.649 7.8477,-17.5 17.5,-17.5 9.6443,0 17.5003,7.851 17.5003,17.5 0,9.648 -7.856,17.5 -17.5003,17.5 z m 0,-45 c -15.1679,0 -27.5,12.344 -27.5,27.5 0,15.176 12.3321,27.5 27.5,27.5 15.1643,0 27.5003,-12.324 27.5003,-27.5 0,-15.156 -12.336,-27.5 -27.5003,-27.5"
           style="fill:#7f7f7f;fill-opacity:1;fill-rule:nonzero;stroke:none"
           id="path1277"
           inkscape:connector-curvature="0" /><path
           d="m 189.727,145.332 c -2.754,0 -5,2.246 -5,5 v 5.645 c 0,2.753 2.246,5 5,5 2.773,0 5,-2.247 5,-5 v -5.645 c 0,-2.754 -2.227,-5 -5,-5"
           style="fill:#7f7f7f;fill-opacity:1;fill-rule:nonzero;stroke:none"
           id="path1279"
           inkscape:connector-curvature="0" /><path
           d="m 189.727,195.957 c -2.754,0 -5,2.246 -5,5 v 5.625 c 0,2.773 2.246,5 5,5 2.773,0 5,-2.227 5,-5 v -5.625 c 0,-2.754 -2.227,-5 -5,-5"
           style="fill:#7f7f7f;fill-opacity:1;fill-rule:nonzero;stroke:none"
           id="path1281"
           inkscape:connector-curvature="0" /><path
           d="m 167.227,173.457 h -5.625 c -2.754,0 -5,2.246 -5,5 0,2.773 2.246,5 5,5 h 5.625 c 2.773,0 5,-2.227 5,-5 0,-2.754 -2.227,-5 -5,-5"
           style="fill:#7f7f7f;fill-opacity:1;fill-rule:nonzero;stroke:none"
           id="path1283"
           inkscape:connector-curvature="0" /><path
           d="m 217.852,173.457 h -5.625 c -2.762,0 -5,2.246 -5,5 0,2.773 2.238,5 5,5 h 5.625 c 2.773,0 5,-2.227 5,-5 0,-2.754 -2.227,-5 -5,-5"
           style="fill:#7f7f7f;fill-opacity:1;fill-rule:nonzero;stroke:none"
           id="path1285"
           inkscape:connector-curvature="0" /><path
           d="m 169.844,153.574 c -1.289,0 -2.571,0.489 -3.543,1.465 -1.946,1.953 -1.946,5.117 0.008,7.07 l 3.984,3.985 c 1.953,1.953 5.117,1.953 7.07,0 1.953,-1.953 1.953,-5.117 0,-7.071 l -3.984,-3.984 c -0.977,-0.976 -2.266,-1.465 -3.535,-1.465"
           style="fill:#7f7f7f;fill-opacity:1;fill-rule:nonzero;stroke:none"
           id="path1287"
           inkscape:connector-curvature="0" /><path
           d="m 205.625,189.375 c -1.27,0 -2.559,0.488 -3.535,1.465 -1.953,1.953 -1.953,5.117 0,7.07 l 3.984,3.985 c 1.953,1.953 5.117,1.953 7.071,0 1.953,-1.954 1.953,-5.118 0,-7.071 l -3.985,-3.984 c -0.976,-0.977 -2.246,-1.465 -3.535,-1.465"
           style="fill:#7f7f7f;fill-opacity:1;fill-rule:nonzero;stroke:none"
           id="path1289"
           inkscape:connector-curvature="0" /><path
           d="m 173.828,189.355 c -1.269,0 -2.558,0.489 -3.535,1.465 l -3.984,4.004 c -1.954,1.953 -1.954,5.117 0,7.071 1.953,1.953 5.117,1.953 7.07,0 l 3.984,-4.004 c 1.953,-1.953 1.953,-5.118 0,-7.071 -0.976,-0.976 -2.246,-1.465 -3.535,-1.465"
           style="fill:#7f7f7f;fill-opacity:1;fill-rule:nonzero;stroke:none"
           id="path1291"
           inkscape:connector-curvature="0" /><path
           d="m 209.609,153.574 c -1.269,0 -2.558,0.489 -3.535,1.465 l -3.965,3.965 c -1.953,1.953 -1.953,5.117 0,7.07 1.954,1.953 5.118,1.953 7.071,0 l 3.965,-3.965 c 1.953,-1.953 1.953,-5.117 0,-7.07 -0.977,-0.976 -2.247,-1.465 -3.536,-1.465"
           style="fill:#7f7f7f;fill-opacity:1;fill-rule:nonzero;stroke:none"
           id="path1293"
           inkscape:connector-curvature="0" /><path
           d="m 189.727,195.957 c -9.649,0 -17.5,-7.852 -17.5,-17.5 0,-9.648 7.851,-17.5 17.5,-17.5 9.648,0 17.5,7.852 17.5,17.5 0,9.648 -7.852,17.5 -17.5,17.5 z m 0,-45 c -15.157,0 -27.5,12.344 -27.5,27.5 0,15.176 12.343,27.5 27.5,27.5 15.175,0 27.5,-12.324 27.5,-27.5 0,-15.156 -12.325,-27.5 -27.5,-27.5"
           style="fill:#7f7f7f;fill-opacity:1;fill-rule:nonzero;stroke:none"
           id="path1295"
           inkscape:connector-curvature="0" /><path
           d="m 91.8867,145.332 c -2.7656,0 -5,2.246 -5,5 v 5.645 c 0,2.753 2.2344,5 5,5 2.7617,0 5,-2.247 5,-5 v -5.645 c 0,-2.754 -2.2383,-5 -5,-5"
           style="fill:#7f7f7f;fill-opacity:1;fill-rule:nonzero;stroke:none"
           id="path1297"
           inkscape:connector-curvature="0" /><path
           d="m 91.8867,195.957 c -2.7656,0 -5,2.246 -5,5 v 5.625 c 0,2.773 2.2344,5 5,5 2.7617,0 5,-2.227 5,-5 v -5.625 c 0,-2.754 -2.2383,-5 -5,-5"
           style="fill:#7f7f7f;fill-opacity:1;fill-rule:nonzero;stroke:none"
           id="path1299"
           inkscape:connector-curvature="0" /><path
           d="m 69.3867,173.457 h -5.625 c -2.7656,0 -5,2.246 -5,5 0,2.773 2.2344,5 5,5 h 5.625 c 2.7617,0 5,-2.227 5,-5 0,-2.754 -2.2383,-5 -5,-5"
           style="fill:#7f7f7f;fill-opacity:1;fill-rule:nonzero;stroke:none"
           id="path1301"
           inkscape:connector-curvature="0" /><path
           d="m 120.012,173.457 h -5.637 c -2.754,0 -5,2.246 -5,5 0,2.773 2.246,5 5,5 h 5.637 c 2.761,0 5,-2.227 5,-5 0,-2.754 -2.239,-5 -5,-5"
           style="fill:#7f7f7f;fill-opacity:1;fill-rule:nonzero;stroke:none"
           id="path1303"
           inkscape:connector-curvature="0" /><path
           d="m 71.9922,153.574 c -1.2774,0 -2.5586,0.489 -3.5352,1.465 -1.9531,1.953 -1.9531,5.117 0,7.07 l 3.9844,3.985 c 1.9531,1.953 5.1289,1.953 7.082,0 1.9414,-1.953 1.9414,-5.117 -0.0117,-7.071 l -3.9844,-3.984 c -0.9765,-0.976 -2.2539,-1.465 -3.5351,-1.465"
           style="fill:#7f7f7f;fill-opacity:1;fill-rule:nonzero;stroke:none"
           id="path1305"
           inkscape:connector-curvature="0" /><path
           d="m 107.781,189.375 c -1.277,0 -2.554,0.488 -3.535,1.465 -1.949,1.953 -1.949,5.117 0,7.07 l 3.984,3.985 c 1.958,1.953 5.122,1.953 7.075,0 1.953,-1.954 1.953,-5.118 0,-7.071 l -3.989,-3.984 c -0.972,-0.977 -2.253,-1.465 -3.535,-1.465"
           style="fill:#7f7f7f;fill-opacity:1;fill-rule:nonzero;stroke:none"
           id="path1307"
           inkscape:connector-curvature="0" /><path
           d="m 75.9844,189.355 c -1.2774,0 -2.5586,0.489 -3.5313,1.465 l -3.9961,4.004 c -1.9531,1.953 -1.9531,5.117 0,7.071 1.9532,1.953 5.1172,1.953 7.0703,0 l 3.9961,-4.004 c 1.9493,-1.953 1.9493,-5.118 0,-7.071 -0.9804,-0.976 -2.2578,-1.465 -3.539,-1.465"
           style="fill:#7f7f7f;fill-opacity:1;fill-rule:nonzero;stroke:none"
           id="path1309"
           inkscape:connector-curvature="0" /><path
           d="m 111.77,153.574 c -1.282,0 -2.559,0.489 -3.54,1.465 l -3.96,3.965 c -1.957,1.953 -1.957,5.117 0,7.07 1.953,1.953 5.117,1.953 7.07,0 l 3.965,-3.965 c 1.953,-1.953 1.953,-5.117 0,-7.07 -0.981,-0.976 -2.258,-1.465 -3.535,-1.465"
           style="fill:#7f7f7f;fill-opacity:1;fill-rule:nonzero;stroke:none"
           id="path1311"
           inkscape:connector-curvature="0" /><path
           d="m 91.8867,195.957 c -9.6523,0 -17.5,-7.852 -17.5,-17.5 0,-9.648 7.8477,-17.5 17.5,-17.5 9.6443,0 17.5003,7.852 17.5003,17.5 0,9.648 -7.856,17.5 -17.5003,17.5 z m 0,-45 c -15.1679,0 -27.5,12.344 -27.5,27.5 0,15.176 12.3321,27.5 27.5,27.5 15.1643,0 27.5003,-12.324 27.5003,-27.5 0,-15.156 -12.336,-27.5 -27.5003,-27.5"
           style="fill:#7f7f7f;fill-opacity:1;fill-rule:nonzero;stroke:none"
           id="path1313"
           inkscape:connector-curvature="0" /><path
           d="m 510.098,390.719 c -5,0 -9.063,-4.074 -9.063,-9.063 0,-4.992 4.063,-9.062 9.063,-9.062 5,0 9.062,4.07 9.062,9.062 0,4.989 -4.062,9.063 -9.062,9.063 z m 0,-28.125 c -10.508,0 -19.063,8.543 -19.063,19.062 0,10.516 8.555,19.063 19.063,19.063 10.507,0 19.062,-8.547 19.062,-19.063 0,-10.519 -8.555,-19.062 -19.062,-19.062"
           style="fill:#7f7f7f;fill-opacity:1;fill-rule:nonzero;stroke:none"
           id="path1315"
           inkscape:connector-curvature="0" /><path
           d="m 510.098,333.105 c -5,0 -9.063,-4.082 -9.063,-9.062 0,-5 4.063,-9.063 9.063,-9.063 5,0 9.062,4.063 9.062,9.063 0,4.98 -4.062,9.062 -9.062,9.062 z m 0,-28.125 c -10.508,0 -19.063,8.536 -19.063,19.063 0,10.508 8.555,19.059 19.063,19.059 10.507,0 19.062,-8.551 19.062,-19.059 0,-10.527 -8.555,-19.063 -19.062,-19.063"
           style="fill:#7f7f7f;fill-opacity:1;fill-rule:nonzero;stroke:none"
           id="path1317"
           inkscape:connector-curvature="0" /><path
           d="m 510.098,275.469 c -5,0 -9.063,-4.063 -9.063,-9.063 0,-5 4.063,-9.062 9.063,-9.062 5,0 9.062,4.062 9.062,9.062 0,5 -4.062,9.063 -9.062,9.063 z m 0,-28.125 c -10.508,0 -19.063,8.554 -19.063,19.062 0,10.508 8.555,19.063 19.063,19.063 10.507,0 19.062,-8.555 19.062,-19.063 0,-10.508 -8.555,-19.062 -19.062,-19.062"
           style="fill:#7f7f7f;fill-opacity:1;fill-rule:nonzero;stroke:none"
           id="path1319"
           inkscape:connector-curvature="0" /><path
           d="m 510.098,217.852 c -5,0 -9.063,-4.063 -9.063,-9.063 0,-5 4.063,-9.062 9.063,-9.062 5,0 9.062,4.062 9.062,9.062 0,5 -4.062,9.063 -9.062,9.063 z m 0,-28.125 c -10.508,0 -19.063,8.554 -19.063,19.062 0,10.508 8.555,19.063 19.063,19.063 10.507,0 19.062,-8.555 19.062,-19.063 0,-10.508 -8.555,-19.062 -19.062,-19.062"
           style="fill:#7f7f7f;fill-opacity:1;fill-rule:nonzero;stroke:none"
           id="path1321"
           inkscape:connector-curvature="0" /><path
           d="M 517.598,435.289 H 74.1797 c -2.7539,0 -5,2.234 -5,5 0,2.762 2.2461,5 5,5 H 517.598 c 2.761,0 5,-2.238 5,-5 0,-2.766 -2.239,-5 -5,-5"
           style="fill:#7f7f7f;fill-opacity:1;fill-rule:nonzero;stroke:none"
           id="path1323"
           inkscape:connector-curvature="0" /><path
           d="m 74.1328,94.6289 c -1.3008,0 -2.5,0.6055 -3.5078,1.5039 -0.8984,0.8985 -1.3984,2.207 -1.3984,3.4961 0,1.3091 0.5,2.5981 1.3984,3.4961 2.0039,2.012 5.3008,1.914 7.1094,0.117 0.8984,-1.015 1.4922,-2.207 1.4922,-3.6131 0,-1.2891 -0.5938,-2.5976 -1.4922,-3.4961 -0.8985,-0.8984 -2.2071,-1.5039 -3.6016,-1.5039"
           style="fill:#7f7f7f;fill-opacity:1;fill-rule:nonzero;stroke:none"
           id="path1325"
           inkscape:connector-curvature="0" /><path
           d="m 98.7305,99.6289 c 0,2.8121 2.3045,5.0001 4.9995,5.0001 v 0 c 2.793,0 5,-2.188 5,-5.0001 v 0 c 0,-2.6953 -2.207,-5 -5,-5 v 0 c -2.695,0 -4.9995,2.3047 -4.9995,5 z m 29.5975,0 c 0,2.8121 2.199,5.0001 5,5.0001 v 0 c 2.707,0 5,-2.188 5,-5.0001 v 0 c 0,-2.6953 -2.293,-5 -5,-5 v 0 c -2.801,0 -5,2.3047 -5,5 z m 29.504,0 c 0,2.8121 2.297,5.0001 5,5.0001 v 0 c 2.793,0 5,-2.188 5,-5.0001 v 0 c 0,-2.6953 -2.207,-5 -5,-5 v 0 c -2.703,0 -5,2.3047 -5,5 z m 29.59,0 c 0,2.8121 2.207,5.0001 5,5.0001 v 0 c 2.812,0 5,-2.188 5,-5.0001 v 0 c 0,-2.6953 -2.188,-5 -5,-5 v 0 c -2.793,0 -5,2.3047 -5,5 z m 29.609,0 c 0,2.8121 2.199,5.0001 5,5.0001 v 0 c 2.696,0 5,-2.188 5,-5.0001 v 0 c 0,-2.6953 -2.304,-5 -5,-5 v 0 c -2.801,0 -5,2.3047 -5,5 z m 29.492,0 c 0,2.8121 2.305,5.0001 5,5.0001 v 0 c 2.813,0 5,-2.188 5,-5.0001 v 0 c 0,-2.6953 -2.187,-5 -5,-5 v 0 c -2.695,0 -5,2.3047 -5,5 z m 29.61,0 c 0,2.8121 2.195,5.0001 5,5.0001 v 0 c 2.695,0 5,-2.188 5,-5.0001 v 0 c 0,-2.6953 -2.305,-5 -5,-5 v 0 c -2.805,0 -5,2.3047 -5,5 z m 29.492,0 c 0,2.8121 2.305,5.0001 5,5.0001 v 0 c 2.805,0 5,-2.188 5,-5.0001 v 0 c 0,-2.6953 -2.195,-5 -5,-5 v 0 c -2.695,0 -5,2.3047 -5,5 z m 29.609,0 c 0,2.8121 2.188,5.0001 5,5.0001 v 0 c 2.793,0 5,-2.188 5,-5.0001 v 0 c 0,-2.6953 -2.207,-5 -5,-5 v 0 c -2.812,0 -5,2.3047 -5,5 z m 29.59,0 c 0,2.8121 2.207,5.0001 5,5.0001 v 0 c 2.703,0 5,-2.188 5,-5.0001 v 0 c 0,-2.6953 -2.297,-5 -5,-5 v 0 c -2.793,0 -5,2.3047 -5,5 z m 29.512,0 c 0,2.8121 2.297,5.0001 5,5.0001 v 0 c 2.793,0 5,-2.188 5,-5.0001 v 0 c 0,-2.6953 -2.207,-5 -5,-5 v 0 c -2.703,0 -5,2.3047 -5,5 z m 29.59,0 c 0,2.8121 2.207,5.0001 5,5.0001 v 0 c 2.707,0 5,-2.188 5,-5.0001 v 0 c 0,-2.6953 -2.293,-5 -5,-5 v 0 c -2.793,0 -5,2.3047 -5,5 z m 29.504,0 c 0,2.8121 2.293,5.0001 5,5.0001 v 0 c 2.8,0 5,-2.188 5,-5.0001 v 0 c 0,-2.6953 -2.2,-5 -5,-5 v 0 c -2.707,0 -5,2.3047 -5,5 z m 29.597,0 c 0,2.8121 2.207,5.0001 5,5.0001 v 0 c 2.801,0 5,-2.188 5,-5.0001 v 0 c 0,-2.6953 -2.199,-5 -5,-5 v 0 c -2.793,0 -5,2.3047 -5,5"
           style="fill:#7f7f7f;fill-opacity:1;fill-rule:nonzero;stroke:none"
           id="path1327"
           inkscape:connector-curvature="0" /><path
           d="m 517.629,94.6289 c -1.399,0 -2.602,0.6055 -3.606,1.5039 -0.898,0.8985 -1.394,2.207 -1.394,3.4961 0,1.3091 0.496,2.5981 1.394,3.4961 2.11,2.012 5.207,1.914 7.11,0.117 0.898,-1.015 1.496,-2.207 1.496,-3.6131 0,-1.2891 -0.598,-2.5976 -1.496,-3.4961 -0.899,-0.8984 -2.207,-1.5039 -3.504,-1.5039"
           style="fill:#7f7f7f;fill-opacity:1;fill-rule:nonzero;stroke:none"
           id="path1329"
           inkscape:connector-curvature="0" /><path
           d="m 74.1328,64.7266 c -1.2031,0 -2.5,0.5078 -3.5078,1.4062 -0.8984,0.9961 -1.3984,2.3047 -1.3984,3.5938 0,1.3086 0.5,2.5976 1.3984,3.5156 1.9063,1.8945 5.3008,1.7969 7.1094,0 0.8984,-0.918 1.4922,-2.207 1.4922,-3.5156 0,-1.2891 -0.5938,-2.5977 -1.4922,-3.5938 -0.8985,-0.8984 -2.2071,-1.4062 -3.6016,-1.4062"
           style="fill:#7f7f7f;fill-opacity:1;fill-rule:nonzero;stroke:none"
           id="path1331"
           inkscape:connector-curvature="0" /><path
           d="m 98.7305,69.7266 c 0,2.7148 2.3045,5 4.9995,5 v 0 c 2.793,0 5,-2.2852 5,-5 v 0 c 0,-2.793 -2.207,-5 -5,-5 v 0 c -2.695,0 -4.9995,2.207 -4.9995,5 z m 29.5975,0 c 0,2.7148 2.199,5 5,5 v 0 c 2.707,0 5,-2.2852 5,-5 v 0 c 0,-2.793 -2.293,-5 -5,-5 v 0 c -2.801,0 -5,2.207 -5,5 z m 29.504,0 c 0,2.7148 2.297,5 5,5 v 0 c 2.793,0 5,-2.2852 5,-5 v 0 c 0,-2.793 -2.207,-5 -5,-5 v 0 c -2.703,0 -5,2.207 -5,5 z m 29.59,0 c 0,2.7148 2.207,5 5,5 v 0 c 2.812,0 5,-2.2852 5,-5 v 0 c 0,-2.793 -2.188,-5 -5,-5 v 0 c -2.793,0 -5,2.207 -5,5 z m 29.609,0 c 0,2.7148 2.199,5 5,5 v 0 c 2.696,0 5,-2.2852 5,-5 v 0 c 0,-2.793 -2.304,-5 -5,-5 v 0 c -2.801,0 -5,2.207 -5,5 z m 29.492,0 c 0,2.7148 2.305,5 5,5 v 0 c 2.813,0 5,-2.2852 5,-5 v 0 c 0,-2.793 -2.187,-5 -5,-5 v 0 c -2.695,0 -5,2.207 -5,5 z m 29.61,0 c 0,2.7148 2.195,5 5,5 v 0 c 2.695,0 5,-2.2852 5,-5 v 0 c 0,-2.793 -2.305,-5 -5,-5 v 0 c -2.805,0 -5,2.207 -5,5 z m 29.492,0 c 0,2.7148 2.305,5 5,5 v 0 c 2.805,0 5,-2.2852 5,-5 v 0 c 0,-2.793 -2.195,-5 -5,-5 v 0 c -2.695,0 -5,2.207 -5,5 z m 29.609,0 c 0,2.7148 2.188,5 5,5 v 0 c 2.793,0 5,-2.2852 5,-5 v 0 c 0,-2.793 -2.207,-5 -5,-5 v 0 c -2.812,0 -5,2.207 -5,5 z m 29.59,0 c 0,2.7148 2.207,5 5,5 v 0 c 2.703,0 5,-2.2852 5,-5 v 0 c 0,-2.793 -2.297,-5 -5,-5 v 0 c -2.793,0 -5,2.207 -5,5 z m 29.512,0 c 0,2.7148 2.297,5 5,5 v 0 c 2.793,0 5,-2.2852 5,-5 v 0 c 0,-2.793 -2.207,-5 -5,-5 v 0 c -2.703,0 -5,2.207 -5,5 z m 29.59,0 c 0,2.7148 2.207,5 5,5 v 0 c 2.707,0 5,-2.2852 5,-5 v 0 c 0,-2.793 -2.293,-5 -5,-5 v 0 c -2.793,0 -5,2.207 -5,5 z m 29.504,0 c 0,2.7148 2.293,5 5,5 v 0 c 2.8,0 5,-2.2852 5,-5 v 0 c 0,-2.793 -2.2,-5 -5,-5 v 0 c -2.707,0 -5,2.207 -5,5 z m 29.597,0 c 0,2.7148 2.207,5 5,5 v 0 c 2.801,0 5,-2.2852 5,-5 v 0 c 0,-2.793 -2.199,-5 -5,-5 v 0 c -2.793,0 -5,2.207 -5,5"
           style="fill:#7f7f7f;fill-opacity:1;fill-rule:nonzero;stroke:none"
           id="path1333"
           inkscape:connector-curvature="0" /><path
           d="m 517.629,64.7266 c -1.399,0 -2.602,0.5078 -3.606,1.4062 -0.898,0.9961 -1.394,2.3047 -1.394,3.5938 0,1.3086 0.496,2.5 1.394,3.5156 2.012,1.8945 5.313,1.8945 7.11,0 0.898,-0.918 1.496,-2.207 1.496,-3.5156 0,-1.2891 -0.598,-2.5977 -1.496,-3.5938 -0.899,-0.8984 -2.207,-1.4062 -3.504,-1.4062"
           style="fill:#7f7f7f;fill-opacity:1;fill-rule:nonzero;stroke:none"
           id="path1335"
           inkscape:connector-curvature="0" /><path
           d="M 517.598,142.266 H 260.234 c -2.773,0 -5,2.246 -5,5 0,2.773 2.227,5 5,5 h 257.364 c 2.761,0 5,-2.227 5,-5 0,-2.754 -2.239,-5 -5,-5"
           style="fill:#7f7f7f;fill-opacity:1;fill-rule:nonzero;stroke:none"
           id="path1337"
           inkscape:connector-curvature="0" /></g></g></g></svg>